
<!-- 取得元: https://github.co.jp/assets/images/btf/btf-logo.svg -->
<!-- コンテンツタイプ: image/svg+xml -->
<!-- 取得日時(UTC): 2025-08-24T07:45:53.772468+00:00 -->
<svg viewBox="0 0 400 179.07" xmlns="http://www.w3.org/2000/svg"><g fill="#fff"><path d="m69.08 99.75c.19 0 .28.18.28.56l.7-1-1.12.43z"/><path d="m78.94 1.83a.38.38 0 0 1 -.28.14c.19.03.28-.04.28-.14z"/><path d="m70.35 99.75a.24.24 0 0 0 0-.09s-.03.09 0 .09z"/><path d="m77.25 96.93v-.14a2.2 2.2 0 0 0 -1.55.42h.14a.33.33 0 0 1 -.28.35.64.64 0 0 0 -.42.35c-.19-.18-.21-.3-.07-.35a.32.32 0 0 0 .21-.35 15.07 15.07 0 0 0 -2.28.79c-.75.33-1.55.64-2.39.92q.28 0 .21.21c0 .14 0 .21.07.21l3.73-1.12c1.27-.38 2.56-.8 3.88-1.27v-.14a3.62 3.62 0 0 0 -.85.07 1.78 1.78 0 0 1 -.4.05z"/><path d="m80.63 94.25c-.66 0-.8.09-.42.28a1 1 0 0 1 -.57.21q-.42.08 0 .36a.41.41 0 0 1 .29-.15c.09 0 .14-.09.14-.28.18 0 .21.07.07.21s-.12.22.07.22a.57.57 0 0 1 .14-.43 1.52 1.52 0 0 0 .28-.42z"/><path d="m55.41 117.92a1.61 1.61 0 0 0 .28-.42 1 1 0 0 1 -.42.42.87.87 0 0 0 -.42.56l.14-.14z"/><path d="m80.49 1.27c-.28 0-.42.19-.42.56.28 0 .42-.19.42-.56z"/><path d="m63 100a2.8 2.8 0 0 1 1.48-.5c.61 0 1-.3 1.06-.77a2.14 2.14 0 0 1 -1.41.63 1.26 1.26 0 0 0 -1.13.64z"/><path d="m75.28 94.81a1.17 1.17 0 0 0 1-.35c.19-.23.52-.26 1-.07 0-.19 0-.26.14-.21s.14 0 .14-.07l-.7-.14a1.15 1.15 0 0 1 -.85.28.66.66 0 0 0 -.73.56z"/><path d="m82 1.27a.28.28 0 0 1 .07-.21.28.28 0 0 0 .07-.21v-.14a1.46 1.46 0 0 1 -.63.14c-.24 0-.4.14-.5.42a1.33 1.33 0 0 0 .57-.14.28.28 0 0 1 .42.14z"/><path d="m24.14 127.22.14-.14c-.1 0-.14.04-.14.14z"/><path d="m44.92 125.67a.69.69 0 0 1 -.35.42.55.55 0 0 0 .35-.07s.16 0 .35.07v-.71a.33.33 0 0 0 -.35.29z"/><path d="m34.14 131.3a.42.42 0 0 1 .28-.14c-.19 0-.28.05-.28.14z"/><path d="m70.32 99.66a2.74 2.74 0 0 1 .31-.62v.28a.12.12 0 0 0 .14-.14.42.42 0 0 0 -.14-.28q-.42.42-.57.42a.46.46 0 0 1 .26.34z"/><path d="m28.22 135.53c-.09 0-.23.09-.42.28.09 0 .2-.09.42-.28z"/><path d="m30.9 133.13a2 2 0 0 0 -.49.36 2 2 0 0 1 -.5.35 10.22 10.22 0 0 0 -1.9.91 10.21 10.21 0 0 1 -1.9.92 5.67 5.67 0 0 0 2.46-.92 12.54 12.54 0 0 1 2.33-1.19l.84-.71a.78.78 0 0 1 -.56.28z"/><path d="m28.93 135.53c0-.1.32-.24 1-.42a4.9 4.9 0 0 0 -1.55.28 1.2 1.2 0 0 1 .55.14z"/><path d="m32.38 133.42c-.24 0-.35 0-.35.14h.56c.28 0 .33-.1.14-.29 0 .1-.12.15-.35.15z"/><path d="m35.83 130.46a2.35 2.35 0 0 0 -.7.28z"/><path d="m69.5 4.23.42-.29c0-.09-.14 0-.42.29z"/><path d="m69.22 97.07c-.75-.19-1 0-.85.56a1.65 1.65 0 0 1 .85-.56z"/><path d="m32 132.57a.12.12 0 0 0 -.14.14c.46-.28.86-.54 1.19-.77a7.46 7.46 0 0 1 1.06-.64l-1 .35a2.85 2.85 0 0 0 -1.11.92z"/><path d="m26.81 136.23a2.33 2.33 0 0 1 -.56.43 4.54 4.54 0 0 0 .85-.29l.56-.28a.85.85 0 0 0 -.85.14z"/><path d="m20.83 139.26c-.33.05-.4.12-.22.21 0-.09.12-.14.36-.14h.49c-.09-.09-.31-.12-.63-.07z"/><path d="m66.68 98.48a.42.42 0 0 0 -.28.14c-.19.19-.19.28 0 .28a1.89 1.89 0 0 1 1.34-.56 2.74 2.74 0 0 0 1.76-1c-.47.19-1 .38-1.55.56a5.76 5.76 0 0 0 -1.27.58z"/><path d="m17.37 141.45a7.55 7.55 0 0 1 1.27-.78 3.11 3.11 0 0 0 1.13-.91 4 4 0 0 1 -1.41.63 1.23 1.23 0 0 0 -.99 1.06z"/><path d="m24 136.87a.49.49 0 0 1 -.43.21 1.44 1.44 0 0 1 -1.26.84 3.47 3.47 0 0 0 -1.7.71 6.35 6.35 0 0 0 2.05-.71c.7-.37 1.29-.7 1.76-1-.19-.17-.33-.19-.42-.05z"/><path d="m27.66 124.82c-.19.09-.28.19-.28.28s-.1.24-.28.43l.42-.22c.09-.04.14-.21.14-.49z"/><path d="m24.42 136.94q.84 0 .84-.42a2.62 2.62 0 0 0 -.49.07c-.23.04-.35.16-.35.35z"/><path d="m6.24 134-1.24 1.25a1.71 1.71 0 0 0 1.24-1.25z"/><path d="m21.88 115.1c0-.09-.09-.14-.28-.14-.09.28-.21.44-.35.49s-.12.12.07.21z"/><path d="m55.2 130.18q-.21.13.21.42a1.06 1.06 0 0 1 .07-.42 1 1 0 0 0 .07-.43 1.09 1.09 0 0 1 -.35.43z"/><path d="m62.88 6.9-.14.14h.14z"/><path d="m62.63 7.08h.11a.16.16 0 0 0 -.11 0z"/><path d="m96.13 91.57c.25-.08.44-.13.58-.16a2.4 2.4 0 0 1 -.58-.12z"/><path d="m104.16 89a3.12 3.12 0 0 0 -.64.07 3 3 0 0 1 -.63.07q.14.28.63.21a.79.79 0 0 0 .64-.35z"/><path d="m96.71 91.41h.26c.03-.03-.09-.03-.26 0z"/><path d="m85 .63a2.06 2.06 0 0 0 .26 0 10.53 10.53 0 0 0 -2 .25 7.75 7.75 0 0 0 1.74-.25z"/><path d="m99.23 84.11h.14a.42.42 0 0 0 .28-.14.53.53 0 0 0 -.42.14z"/><path d="m60.06 8-.14.14a.12.12 0 0 0 .14-.14z"/><path d="m34.42 131.16.71-.42-.57.28z"/><path d="m95.85 92.84a.77.77 0 0 0 -.29.07q-.14.07 0 .78a.34.34 0 0 0 .22-.07 2.25 2.25 0 0 0 .07-.78z"/><path d="m90.91 53.68-.14-.14-.14.28a.4.4 0 0 0 .28-.14z"/><path d="m16.53 126.65h-.28c.18.1.28.1.28 0z"/><path d="m85.26.6h.79.65a5.35 5.35 0 0 0 -1.44 0z"/><path d="m63.73 6.62.42-.28c-.1 0-.24.09-.42.28z"/><path d="m6.67 131.44a2.21 2.21 0 0 1 .56-.77c.19-.14.19-.26 0-.35 0 .18-.12.3-.35.35s-.3.33-.21.77z"/><path d="m9.41 126.59a1 1 0 0 0 -.21.35q.29 0 .57-.57a.93.93 0 0 0 -.35.21 1.24 1.24 0 0 0 .21-.63c-.19.19-.29.33-.29.42s-.09.19-.28.28c.09.19.21.16.35-.06z"/><path d="m8.22 128.2a1.21 1.21 0 0 0 .42-.84z"/><path d="m95.14 93.41a.4.4 0 0 0 -.14.28h.42v-.69c-.19 0-.28.12-.28.41z"/><path d="m11.88 124.12a.13.13 0 0 0 .12-.12l-.28-.14v.56c.02-.21.07-.3.16-.3z"/><path d="m19.7 117.14a1.07 1.07 0 0 1 .77-.77c-.18-.19-.16-.33.07-.42s.26-.19.07-.29a2.64 2.64 0 0 1 -.7.92 7.5 7.5 0 0 0 -1.13 1.34 1.13 1.13 0 0 0 .92-.78z"/><path d="m12.44 125.53a5.47 5.47 0 0 0 -.84 1.41l1.83-2.12v.18l2-1a5.3 5.3 0 0 1 -.7-.07 1.1 1.1 0 0 0 -.73.07v.14a7.74 7.74 0 0 0 -1.56 1.39z"/><path d="m13.71 123.41a9.08 9.08 0 0 0 -1.9 1.55 20.72 20.72 0 0 0 -1.48 1.83c.47-.47 1-1 1.55-1.69a10.37 10.37 0 0 1 1.83-1.69z"/><path d="m5.85 130.94a3.31 3.31 0 0 0 -.31.5c.1-.15.21-.33.31-.5z"/><path d="m5 132.85a3.58 3.58 0 0 0 -.85 1.41 18.29 18.29 0 0 0 2.26-2.82z"/><path d="m93.45 95.8a.82.82 0 0 0 .56-.14c-.37 0-.56.05-.56.14z"/><path d="m6.81 130a.84.84 0 0 0 -.71.5c-.08.15-.17.27-.25.41a2.1 2.1 0 0 1 .32-.34 7.36 7.36 0 0 0 .64-.57z"/><path d="m6.24 134 .71-.71-.56.29a.57.57 0 0 1 -.15.42z"/><path d="m7.51 132.57-.56.7c.38-.27.56-.51.56-.7z"/><path d="m9.06 126.51a.13.13 0 0 0 -.14.14h.14z"/><path d="m64.43 96.79a.13.13 0 0 0 .14-.14c0-.1.09-.15.28-.15-.28-.09-.42 0-.42.29z"/><path d="m60 98.34c-.33 0-.54.09-.63.28a4.9 4.9 0 0 0 1.55-.28c-.19-.19-.33-.28-.43-.28-.01.18-.17.28-.49.28z"/><path d="m61.05 98.34a.38.38 0 0 1 .28-.14.53.53 0 0 0 -.42.14z"/><path d="m58.23 99.32c.09-.18.21-.28.35-.28s.26-.09.36-.28a1.77 1.77 0 0 0 -.43.07c-.19.05-.28.17-.28.49z"/><path d="m63.3 97.07a3.06 3.06 0 0 0 -2 1.13 11 11 0 0 0 2-1.13z"/><path d="m76.4 91.86v.14a.49.49 0 0 0 .5 0c.14-.1.11-.14-.07-.14z"/><path d="m71.47 93.83h.43c.18 0 .28 0 .28-.14h-.42c-.19 0-.29.04-.29.14z"/><path d="m56.12 100.31 1.69-.85c.09-.09.16-.14.21-.14s.07-.09.07-.28a4.37 4.37 0 0 0 -1.13.63 9.35 9.35 0 0 1 -.84.64z"/><path d="m65.84 96.36c0-.28 0-.37.07-.28s.07 0 .07-.42c-.38 0-.42.24-.14.7z"/><path d="m70.63 94.25a.57.57 0 0 0 .42-.14 1.52 1.52 0 0 1 .42-.28q-.84 0-.84.42z"/><path d="m68.8 94.67a4.76 4.76 0 0 0 .84-.07.71.71 0 0 0 .57-.35 1.84 1.84 0 0 1 -.78.14c-.33 0-.54.1-.63.28z"/><path d="m51.61 100.17v-.42c-.19.37-.24.61-.14.7 0-.19.04-.28.14-.28z"/><path d="m53.16 101v-.28a.81.81 0 0 1 -.56.28c-.19 0-.15.14.14.43a.37.37 0 0 1 .42-.43z"/><path d="m78 91.57a.19.19 0 0 0 0 .29.41.41 0 0 1 .29-.15h.28v-.56l-.28.42z"/><path d="m53.86 101.44a.58.58 0 0 0 .43-.15z"/><path d="m54 98.48q-.28 0 0 .42z"/><path d="m55.41 99.11c-.19.14-.28.12-.28-.07l-.14.28v.57a3.13 3.13 0 0 1 .63-.71c.24-.19.31-.37.22-.56a1.43 1.43 0 0 1 -.43.49z"/><path d="m54.71 100.17c-.1-.19-.24-.21-.42-.07s-.14.21.14.21.28-.05.28-.14z"/><path d="m55.84 101.15-2 1.13c1.16-.28 1.81-.66 2-1.13z"/><path d="m49.07 101.58c0-.29.17-.43.5-.43s.49-.18.49-.56a4.83 4.83 0 0 1 -1.69.85 3.57 3.57 0 0 1 .7.14z"/><path d="m50.76 100.45c-.19 0-.28 0-.28.07s-.09.07-.28.07v.28c.37 0 .56-.14.56-.42z"/><path d="m53.86 101.44h-.28a3.33 3.33 0 0 1 -1.58.56 1.46 1.46 0 0 0 -1.27.84z"/><path d="m50.06 104.25 2.82-1.41a4 4 0 0 0 -1.62.57q-.65.42-1.2.84z"/><path d="m55.84 100.45a5.9 5.9 0 0 0 -1.27.7z"/><path d="m67.88 55.65c-.33.19-.68.37-1.06.56a4.25 4.25 0 0 0 2.12-1.13c-.38.19-.73.38-1.06.57z"/><path d="m66.82 56.21a2.06 2.06 0 0 1 -.84.28c.09.1-.1.15-.56.15.46.09.72.09.77 0s.16-.15.35-.15v.15c.19 0 .28-.15.28-.43z"/><path d="m80.21 47.76c.19 0 .28 0 .28-.14-.19 0-.28.05-.28.14z"/><path d="m76.26 49.87a5.9 5.9 0 0 1 1-.21 1.33 1.33 0 0 0 .84-.35 5.17 5.17 0 0 0 -.91.14 2 2 0 0 0 -.93.42z"/><path d="m73.87 51.56a6.19 6.19 0 0 1 1.13-.42 1.25 1.25 0 0 0 .84-.84 2.16 2.16 0 0 0 -1.13.56 5.19 5.19 0 0 1 -.84.7z"/><path d="m70.91 53.25c0-.09.09-.14.28-.14s.28 0 .28-.14a.26.26 0 0 0 -.35 0c-.12.1-.21.19-.21.28z"/><path d="m111.06 34a3.86 3.86 0 0 0 -.56 1 3.17 3.17 0 0 1 .28-.49 5.59 5.59 0 0 0 .28-.51z"/><path d="m104.58 85.37a2.3 2.3 0 0 0 1.27-.28c-.28 0-.71 0-1.27.07s-.94.07-1.13.07a2.85 2.85 0 0 0 1.13.14z"/><path d="m64.57 57.2c0-.19 0-.28.07-.28s.07-.05.07-.14 0-.1-.14 0-.09.22 0 .42z"/><path d="m111.77 32.12-.15.28a.38.38 0 0 0 .15-.28z"/><path d="m25.26 44c-.09 0-.14.14-.14.42q.15 0 .21-.21c.05-.21.03-.21-.07-.21z"/><path d="m17.42 121.73h.1s-.04-.04-.1 0z"/><path d="m100.78 88.19c.37 0 .51 0 .42-.14-.28 0-.42.05-.42.14z"/><path d="m101.34 88.33h.28c-.19-.09-.28-.09-.28 0z"/><path d="m15.82 123.06a1.84 1.84 0 0 0 -.28.78l1.13-1.55a1.88 1.88 0 0 0 -.85.77z"/><path d="m80.07 90.94a.07.07 0 0 1 0 0 1.65 1.65 0 0 0 .32-.12c-.23.05-.32.07-.32.12z"/><path d="m81.19 90.45v.14a1.15 1.15 0 0 0 .43.14l-.14-.14a.44.44 0 0 1 -.29-.14z"/><path d="m17 122.15a3.7 3.7 0 0 1 .47-.42c-.36.03-.47.16-.47.42z"/><path d="m19.49 119.75-.71.49a2.17 2.17 0 0 0 -.56.78.38.38 0 0 1 .28-.14v.56c.09 0 .16-.09.21-.28a.39.39 0 0 0 -.07-.42 2.37 2.37 0 0 1 .57-.43.57.57 0 0 0 .28-.56z"/><path d="m25.4 115.38c-.94.57-1.87 1.15-2.81 1.76a15.09 15.09 0 0 0 -2.54 2 21.85 21.85 0 0 1 2.54-1.91c.94-.56 1.87-1.23 2.81-1.85z"/><path d="m19.91 120.1c.09 0 .14-.16.14-.35-.47 0-.56.23-.28.7 0-.18.05-.3.14-.35z"/><path d="m80 91h-.1a.22.22 0 0 0 .1 0z"/><path d="m77.25 94.53a3.12 3.12 0 0 1 -1.06.28 1.42 1.42 0 0 0 -.77.29 4.85 4.85 0 0 1 .91-.22 2.07 2.07 0 0 0 .92-.35z"/><path d="m73.45 95.24h-.36s-.16.14-.35.42a.48.48 0 0 1 .35-.14c.14 0 .26-.09.36-.28z"/><path d="m68.94 106.44c.09 0 .09 0 0-.22l-.36.25s-.06 0-.06 0c-.48.09-.71.28-.71.56a1.75 1.75 0 0 0 -.63.35 1 1 0 0 0 -.5.78c.19-.28.36-.52.5-.71s.3-.14.49.14q.28-.27.42-.42a.57.57 0 0 0 .14-.42 2.52 2.52 0 0 0 1-.14 2.42 2.42 0 0 0 -.6-.18.41.41 0 0 1 .31.01z"/><path d="m72.74 99.89a1.85 1.85 0 0 0 -1.06.56 5.25 5.25 0 0 1 -1.19.84 3.57 3.57 0 0 0 2.25-1.4z"/><path d="m73.52 99.75a1.7 1.7 0 0 0 -.78.14c1 0 1.64-.14 1.83-.43a2.35 2.35 0 0 1 -1.05.29z"/><path d="m75.28 99a.84.84 0 0 0 -.71.42c.43.04.71-.1.71-.42z"/><path d="m67 102.56c0-.18-.15-.14-.43.14.25 0 .43-.04.43-.14z"/><path d="m68.66 101.86c.65.19 1 .09 1-.28a.82.82 0 0 1 -.56.14.57.57 0 0 0 -.44.14z"/><path d="m72.32 96.65a1.05 1.05 0 0 1 1.06-.71 1.48 1.48 0 0 0 1.05-.28 4.73 4.73 0 0 1 -1.34.21c-.7.05-.96.31-.77.78z"/><path d="m37 129.75 1.83-.84v-.57c-.38.29-.71.54-1 .78s-.59.44-.83.63z"/><path d="m70.63 97.07c-.1-.19-.17-.24-.21-.14a2.36 2.36 0 0 1 -.36.42c.38 0 .57-.09.57-.28z"/><path d="m70 98.27c.05-.15.07-.17.07-.07.19.19.22.26.08.21s-.22 0-.22.21l1-.56v-.15c.19-.28.4-.4.63-.35s.36-.12.36-.49l-2 1.13c0 .19.08.21.08.07z"/><path d="m49.07 102.56.29-.28-.85.28c.28.1.49.1.56 0z"/><path d="m49 111c0-.29 0-.43-.07-.43-.09.38-.26.52-.49.43s-.4 0-.49.14c.46 0 .72.07.77.21s0 0 .05 0c-.26-.06-.43-.08-.47 0a.33.33 0 0 1 -.21.07 1.49 1.49 0 0 1 .49.07.32.32 0 0 0 .35-.07.5.5 0 0 0 .19-.13c-.12.1-.12.01-.12-.29z"/><path d="m52 109.61a3.5 3.5 0 0 0 1.55-.85l-.77.28a2.55 2.55 0 0 0 -.78.57z"/><path d="m50.76 110.17 1.13-.28c0-.1 0-.14.07-.14s.07 0 .07-.14a1.32 1.32 0 0 1 -.63.35 2.83 2.83 0 0 0 -.64.21z"/><path d="m65.84 103c-.19.18-.24.28-.14.28a2.54 2.54 0 0 0 .42-.07c.19 0 .23-.17.14-.36a.54.54 0 0 0 -.42.15z"/><path d="m40.62 127.22a1.46 1.46 0 0 0 -.7.14c.46 0 .7-.05.7-.14z"/><path d="m48.65 123c.09.19-.12.3-.63.35s-.78.26-.78.64a5.55 5.55 0 0 1 1.27-.57c.56-.2.61-.34.14-.42z"/><path d="m66.13 109.15a.53.53 0 0 0 .13-.11z"/><path d="m54.29 108.62q.27 0 .42-.42a.37.37 0 0 0 -.42.42z"/><path d="m66 109c-.28.19-.42.33-.42.43a1 1 0 0 0 .57-.32c-.15.1-.15.07-.15-.11z"/><path d="m62.18 104.6a1.27 1.27 0 0 0 -.71.36 4.78 4.78 0 0 1 .78-.28.89.89 0 0 0 .63-.57 1 1 0 0 1 -.7.49z"/><path d="m64.15 110.45c-.38.09-.42.19-.14.28.09-.09.25-.11.49-.07a.39.39 0 0 0 .49-.21 1.31 1.31 0 0 0 -.84 0z"/><path d="m75.84 99a.57.57 0 0 0 .42-.14c-.26.04-.42.14-.42.14z"/><path d="m44 105.24a1.57 1.57 0 0 1 .85-.49 1 1 0 0 0 .56-.22c-.19 0-.49 0-.92.07s-.58.27-.49.64z"/><path d="m44.21 103.55c.14-.09.07-.19-.21-.28 0 .37-.14.42-.42.14v.49s.14 0 .42-.07c0-.09.07-.19.21-.28z"/><path d="m40.62 107.14c.09-.14.28-.16.56-.07a5.54 5.54 0 0 0 .43-.49c.18-.24.37-.31.56-.21a2.08 2.08 0 0 1 .42-.57.78.78 0 0 0 .28-.56 4.14 4.14 0 0 1 -1.12.77 8.42 8.42 0 0 0 -1.55 1.06c.18.19.33.21.42.07z"/><path d="m41.89 105.24c.19 0 .28-.19.28-.56-.28-.1-.33-.15-.14-.15s.28 0 .28-.14l-.63.21c-.14.05-.12.27.07.64 0 .09.04.09.14 0z"/><path d="m41.75 105.66q.84 0 .84-.42a2.15 2.15 0 0 0 -.56.07.33.33 0 0 0 -.28.35z"/><path d="m40.62 104.11c0-.09.12-.14.35-.14s.35-.09.35-.28a1.54 1.54 0 0 0 -.77.14c-.14.09-.12.17.07.28z"/><path d="m39.63 105.8c.19.19.33.24.43.14a1.78 1.78 0 0 1 .42-.28c-.56-.09-.85-.04-.85.14z"/><path d="m41 105c-.14.19-.07.37.21.56.1.1.14 0 .14-.28v-.56c-.12-.04-.24.05-.35.28z"/><path d="m44.35 104.18a1.43 1.43 0 0 0 .78-.07 2.42 2.42 0 0 0 -1-.07c-.37 0-.47.12-.28.21a.56.56 0 0 1 .5-.07z"/><path d="m47.24 103.13a.4.4 0 0 0 -.14.28v.14a.42.42 0 0 0 .28-.14.85.85 0 0 0 .14-.57c-.19 0-.28.1-.28.29z"/><path d="m47 101.86c.09 0 .12 0 .07.07s0 .07.07.07.14 0 .14-.07.09-.12.28-.21v.14a.25.25 0 0 0 .21-.07.57.57 0 0 1 .36-.07.36.36 0 0 1 .14-.28z"/><path d="m46.61 104.25a.45.45 0 0 0 .35-.14c-.38 0-.61.1-.7.28a.48.48 0 0 1 .35-.14z"/><path d="m48.23 102.84c.28 0 .33-.09.14-.28-.1 0-.14.1-.14.28z"/><path d="m46.33 103.83s0-.09-.07-.28l-.57.7c-.09.1 0 .14.14.14-.09-.18-.07-.3.07-.35a.36.36 0 0 1 .36.07c0-.19.02-.28.07-.28z"/><path d="m45.29 103.06a1.45 1.45 0 0 0 .12-.22c-.06 0-.09.08-.12.22z"/><path d="m45.83 103.41c0-.47.1-.75.28-.85a.91.91 0 0 0 .43-.56l-1 .84a.52.52 0 0 1 .14.36c.01.14.06.21.15.21z"/><path d="m45 103.41q-.15.14-.42 0v.42a.57.57 0 0 0 .56-.28c.09-.19.14-.24.14-.14a3 3 0 0 1 0-.35c-.12.23-.22.35-.28.35z"/><path d="m80.07 94 1.41-.28v-.28a8.29 8.29 0 0 1 -1.62.42 6.82 6.82 0 0 0 -1.62.42c.76-.12 1.36-.22 1.83-.28z"/><path d="m77.67 95.38h-.14a.55.55 0 0 1 -.84-.28c-.19.09-.36.16-.5.21a1.29 1.29 0 0 0 -.49.35v.14h-.42c-.28 0-.52.28-.71.85a1.63 1.63 0 0 1 -1.27.49 1.31 1.31 0 0 0 -1.26.77h.42c.19-.47.42-.7.7-.7h1.27a.37.37 0 0 1 .42-.42c.19.09.45 0 .78-.29a4.12 4.12 0 0 1 .77-.56 1.16 1.16 0 0 1 -.56-.14v-.14a1.61 1.61 0 0 1 .92-.28c.32 0 .44.14.35.42h.28c.75 0 1.22-.23 1.41-.7a1.51 1.51 0 0 1 .21-.36.25.25 0 0 0 .07-.21c-.19.1-.4.21-.63.35s-.45.31-.78.5z"/><path d="m74.57 95.8c-.19.1-.59.26-1.19.49a2.55 2.55 0 0 0 -1.38 1.06 5.84 5.84 0 0 1 1.48-.63 1.5 1.5 0 0 0 1.09-.92z"/><path d="m39.63 107.63.57-.56c-.47.1-.66.28-.57.56z"/><path d="m72.46 95.52c0 .09-.07.14-.21.14s-.21 0-.21.14c.47 0 .61-.09.42-.28z"/><path d="m182.2 63.82c-.09.28 0 .38.14.28a.52.52 0 0 1 .08-.35.33.33 0 0 0 .07-.21c-.1-.09-.19 0-.29.28z"/><path d="m178.68 44.94c1.32 0 1.88.66 1.69 2 0-.09.1-.14.28-.14v.57a.34.34 0 0 0 .36-.21.61.61 0 0 1 .35-.36c.19.1.21.26.07.5s-.12.35.07.35c0-.37.28-.66.84-.85v.85l.57.42c0-.19 0-.28.14-.28a3.41 3.41 0 0 1 1.27-.28h1.26a3.78 3.78 0 0 1 .85-.85 1.23 1.23 0 0 1 -.42.85c.18 0 .28 0 .28-.07s.09-.07.28-.07a8.05 8.05 0 0 1 1.83-2.61 16.52 16.52 0 0 0 2-2.18h.71c0-.1-.1-.14-.28-.14s-.28 0-.28-.14a3.39 3.39 0 0 0 .77-1.13 11 11 0 0 1 .49-1.13c.1 0 .19.1.29.28a.63.63 0 0 0 -.07-.35.52.52 0 0 1 -.08-.35c-.18 0-.28-.05-.28-.14a1.27 1.27 0 0 0 -.77-1.13 1.41 1.41 0 0 0 -1.34-.14 1.2 1.2 0 0 1 -.35-.7c-.05-.29 0-.47.21-.57a2 2 0 0 0 -.35-.49.87.87 0 0 1 -.21-.64 2.72 2.72 0 0 1 -2.4.85c-.09-.19-.07-.3.07-.35a.34.34 0 0 0 .21-.36 2.34 2.34 0 0 0 -1.34-.14 1 1 0 0 0 -.77.57.78.78 0 0 1 -.56-.28c-.1 0-.12 0-.07.14s0 .09-.22 0c-.19-.47-.47-.52-.84-.14l-.85.84c-.37 0-.61 0-.7-.14a1.24 1.24 0 0 1 -.49 1.06l-.92.63a.5.5 0 0 0 -.14.35.83.83 0 0 1 -.28.5 12 12 0 0 0 -1.13 4.93c.16-.03.25.2.25.67z"/><path d="m209.53 88.33a1.52 1.52 0 0 1 .43-.49.37.37 0 0 0 .14-.49 1.78 1.78 0 0 1 -.36.49.68.68 0 0 0 -.21.49z"/><path d="m224.89 31.56c.28-.09.42-.38.42-.85-.19 0-.33.14-.42.43.09 0 .14-.05.14-.15s.05-.09.14 0a.29.29 0 0 1 -.07.22 1.21 1.21 0 0 0 -.21.35z"/><path d="m211.22 86.36.43-.42c-.38 0-.66.23-.85.7a1.33 1.33 0 0 0 .42-.28z"/><path d="m263.07 32a8.7 8.7 0 0 1 -.57 1c-.18.28-.37.61-.56 1 .28-.37.54-.7.78-1a1.52 1.52 0 0 0 .35-1z"/><path d="m274.62 28.6c-.19-.19-.28-.14-.28.14h.28z"/><path d="m261.66 34.8a1 1 0 0 0 -.42.84 3.72 3.72 0 0 1 .28-.49.72.72 0 0 0 .14-.35z"/><path d="m260 38.46-.28.14a.61.61 0 0 0 .28-.07c.06-.04.06-.07 0-.07z"/><path d="m260.25 37.76q-.13 0-.21.21c-.05.14 0 .21.07.21 0-.28.05-.42.14-.42z"/><path d="m252.36 99.75c0-.19.07-.29.21-.29s.26-.14.35-.42l.43-.7c-.28.28-.43.47-.43.56a1.91 1.91 0 0 1 -.56.42c-.19.1-.19.24 0 .43z"/><path d="m253.63 98.2.42-.57a.46.46 0 0 0 -.42.21.25.25 0 0 0 0 .36z"/><path d="m255.9 46.13.12-.2c-.02 0-.11.07-.12.2z"/><path d="m288.14 63.82c-.09.28-.05.38.14.28a.6.6 0 0 1 .07-.35.29.29 0 0 0 .08-.21c-.1-.09-.19 0-.29.28z"/><path d="m284.62 44.94c1.32 0 1.88.66 1.69 2 0-.09.09-.14.28-.14v.57a.34.34 0 0 0 .36-.21.61.61 0 0 1 .35-.36c.18.1.21.26.07.5s-.12.35.07.35c0-.37.28-.66.84-.85v.85l.57.42c0-.19 0-.28.14-.28a3.41 3.41 0 0 1 1.27-.28h1.26a3.78 3.78 0 0 1 .85-.85 1.23 1.23 0 0 1 -.42.85c.18 0 .28 0 .28-.07s.09-.07.28-.07a8.05 8.05 0 0 1 1.83-2.61 16.52 16.52 0 0 0 2-2.18h.66c0-.1-.1-.14-.28-.14s-.28 0-.28-.14a3.39 3.39 0 0 0 .77-1.13 11 11 0 0 1 .49-1.13c.1 0 .19.1.29.28a.54.54 0 0 0 -.08-.35.6.6 0 0 1 -.07-.35c-.19 0-.28-.05-.28-.14a1.27 1.27 0 0 0 -.77-1.13 1.41 1.41 0 0 0 -1.34-.14 1.2 1.2 0 0 1 -.35-.7c-.05-.29 0-.47.21-.57a2 2 0 0 0 -.35-.49.83.83 0 0 1 -.22-.64c-.37.57-1.17.85-2.39.85-.1-.19-.07-.3.07-.35a.34.34 0 0 0 .21-.36 2.34 2.34 0 0 0 -1.34-.14 1 1 0 0 0 -.77.57.81.81 0 0 1 -.57-.28c-.09 0-.11 0-.07.14s0 .09-.21 0c-.19-.47-.47-.52-.84-.14l-.85.84c-.37 0-.61 0-.7-.14a1.23 1.23 0 0 1 -.5 1.06l-.91.63a.46.46 0 0 0 -.14.35.83.83 0 0 1 -.28.5 12 12 0 0 0 -1.13 4.93c.21-.03.3.2.3.67z"/><path d="m291.1 108.48-.28-.85a1.15 1.15 0 0 0 .28.85z"/><path d="m288.42 105.52a.91.91 0 0 1 -.28-.63.51.51 0 0 0 -.28-.5 3.22 3.22 0 0 0 .14.78c.09.33.24.45.42.35z"/><path d="m320.12 112.42a5 5 0 0 1 -1.83-1h-.7c.18.49 1.03.82 2.53 1z"/><path d="m333.65 93.26c.28 0 .42-.18.42-.56a.76.76 0 0 1 -.28.35.22.22 0 0 0 -.14.21z"/><path d="m382.83 60.12h.08a.1.1 0 0 0 -.08 0z"/><path d="m385.91 85.23a.73.73 0 0 1 -.35.21c-.14 0-.21.12-.21.22a1 1 0 0 1 .42-.14c.09 0 .14-.1.14-.29z"/><path d="m383 86.78-.42.43c.23-.1.42-.21.42-.43z"/><path d="m376.26 88.76c-.14 0-.21.09-.21.28a.42.42 0 0 1 .28-.14c.09 0 .24-.1.42-.28h-.28c0 .09-.07.14-.21.14z"/><path d="m377.11 88.19a.49.49 0 0 0 -.21.43.74.74 0 0 1 .28-.36.76.76 0 0 0 .28-.35h-.14c0 .09-.07.19-.21.28z"/><path d="m385.91 85.66c-.19 0-.28 0-.28.14s-.09.19-.28.28c.47 0 .65-.14.56-.42z"/><path d="m390.56 81.57a.25.25 0 0 0 -.28.28.93.93 0 0 1 .35-.21.6.6 0 0 0 .35-.35h-.14a.24.24 0 0 1 -.28.28z"/><path d="m389 83.54c-.09 0-.33.19-.7.57.48-.19.7-.38.7-.57z"/><path d="m383.23 60.3c-.11 0-.21-.1-.32-.15a.09.09 0 0 1 0 .08c.09.14.14.16.32.07z"/><path d="m385.77 81.29c-1 .66-2 1.34-2.89 2s-1.76 1.43-2.6 2.19a4.32 4.32 0 0 0 -1.27.77 2.12 2.12 0 0 0 -.71 1.06c1.13-1 2.3-2 3.53-3s2.48-1.93 3.8-3z"/><path d="m383.38 84c0-.06-.06 0-.15 0a.57.57 0 0 1 .15 0z"/><path d="m383 84.25a2.42 2.42 0 0 1 .28-.25c-.22 0-.28.1-.28.25z"/><path d="m399.44 74.81.56-.42a3.71 3.71 0 0 0 -.56.42z"/><path d="m399.3 74.81-.71.56c.47-.19.71-.37.71-.56z"/><path d="m343.65 116.23a1.77 1.77 0 0 0 -.43.7c.38-.19.57-.42.57-.7z"/><path d="m340.27 80.73a10.89 10.89 0 0 1 -.64 1.33c-.08.15-.15.32-.22.48.07-.14.14-.28.22-.41a6.33 6.33 0 0 0 .64-1.4z"/><path d="m333.64 127.92-.7.99.99-1.27z"/><path d="m331.81 130.25a5.19 5.19 0 0 0 -.7 1.05l1.55-2.11c-.28.37-.57.73-.85 1.06z"/><path d="m339.41 82.54a6.84 6.84 0 0 0 -.41.86c.12-.3.27-.58.41-.86z"/><path d="m315.05 160a1.14 1.14 0 0 0 .42-.7h-.28a.42.42 0 0 1 -.14.28q-.14.18 0 .42z"/><path d="m316.78 161.84a.41.41 0 0 0 0 .08.19.19 0 0 0 0-.08z"/><path d="m313.78 164.41a7.8 7.8 0 0 1 .42-1.55 3.73 3.73 0 0 0 .28-1.41 20.24 20.24 0 0 0 -.7 2.96z"/><path d="m392.81 82.13a2 2 0 0 1 .78-.84 1.28 1.28 0 0 0 .63-.7l-.56.42c.09-.09.12-.17.07-.21s-.26.07-.63.35a1.86 1.86 0 0 1 -.71.63 2.51 2.51 0 0 0 -.7.5 2.44 2.44 0 0 0 -.85.63 1 1 0 0 1 -.84.35c-1.13.94-2.24 1.81-3.31 2.61s-2.28 1.67-3.6 2.61v-.15a.26.26 0 0 0 -.28.29 3.37 3.37 0 0 0 -.77.7 2.74 2.74 0 0 1 -.92.7 6.21 6.21 0 0 1 .57-.49.76.76 0 0 0 .28-.63 3.36 3.36 0 0 0 -1.27.91 3.16 3.16 0 0 1 -1.55.92 3.43 3.43 0 0 0 .56-.35 1.46 1.46 0 0 0 .43-.5 4.77 4.77 0 0 0 1.4-.91c.47-.42.94-.87 1.41-1.34h.28l-.84 1 .7-.43v-.14a3.14 3.14 0 0 0 1.13-1.13 3 3 0 0 0 -.84.57v-.28c-.1-.1-.17-.1-.22 0a.22.22 0 0 1 -.21.14l-1 1a3.57 3.57 0 0 1 -1 .71 1.52 1.52 0 0 1 -.7.56l-.25.37a3.08 3.08 0 0 1 -.63.5c-.23.14-.45.26-.63.35a13.45 13.45 0 0 1 -1.48 1.27c-.52.37-1.06.75-1.62 1.12a22 22 0 0 1 2.46-2.11c.89-.65 1.76-1.36 2.61-2.11a7.32 7.32 0 0 0 .56-.64q.28-.34.57-.63c.28-.66.65-1 1.12-1 .19-.18.19-.28 0-.28a1.09 1.09 0 0 0 .43-.35c.09-.14.28-.16.56-.07v-.14h.42l1.41-1.41a6 6 0 0 1 1.55-1.13c0-.18 0-.28.07-.28s.12-.09.21-.28c1.22-.75 2.23-1.39 3-1.9s1.55-1 2.26-1.55 1.47-1 2.32-1.55l3.1-1.9v-.43l-3.1 1.91-2.47 1.48c-.79.47-1.59 1-2.39 1.54s-1.81 1.27-3 2.12a9.51 9.51 0 0 1 2.54-2 6.24 6.24 0 0 0 2.25-2 4.76 4.76 0 0 0 -.77.64 3.9 3.9 0 0 1 -.92.63 1.83 1.83 0 0 1 -.63.42 4.44 4.44 0 0 0 -.78.43 3.81 3.81 0 0 0 -.56.7c-.19.28-.47.33-.85.14a.66.66 0 0 1 .35-.35.64.64 0 0 0 .36-.35q-2 1.26-3.81 2.6a43.91 43.91 0 0 0 -3.51 2.83l-3.8 3 .84-1a8.43 8.43 0 0 1 -1 .85 2.81 2.81 0 0 0 -.85 1l.71-.56-3 2.68a1.71 1.71 0 0 1 .91-1 1.71 1.71 0 0 0 .92-1c-.66.56-1.32 1.08-2 1.54a6.37 6.37 0 0 0 -1.69 1.84c-.19-.19-.15-.36.14-.5s.32-.25.14-.35a5.69 5.69 0 0 0 .21-1 1.36 1.36 0 0 1 .35-.84q-.29 0 .21-.42c.33-.28.35-.43.07-.43q1.69-3.66 2.82-6.12c.75-1.65 1.43-3.17 2-4.58s1.27-2.91 2-4.51 1.57-3.52 2.6-5.78a5.27 5.27 0 0 0 .49-.91c.15-.33.26-.64.36-.92a2.75 2.75 0 0 0 .21-1.27 8.42 8.42 0 0 1 -.07-1.12 21.56 21.56 0 0 0 -.43-2.47c-.18-.8-.37-1.52-.56-2.18a.28.28 0 0 1 .16 0 3.37 3.37 0 0 1 -1-.67 3.68 3.68 0 0 0 -1.41-.84 2.19 2.19 0 0 0 -.71-1.34 1.18 1.18 0 0 0 -1.41-.07c.1-.56-.16-.85-.77-.85s-.59.43.07 1.27a.87.87 0 0 1 -.56-.42 1 1 0 0 0 -.71-.42.24.24 0 0 0 .28.28c.19 0 .24.09.14.28a.94.94 0 0 1 -.42-.07.91.91 0 0 0 -.42-.07c-.1.09-.07.14.07.14s.16 0 .07.14-.31.09-.35 0a.24.24 0 0 0 -.21-.14 5 5 0 0 1 -1.27.92 1.35 1.35 0 0 0 -.71 1.33c-.37-.18-.63-.11-.77.22s-.26.63-.35.91a8.13 8.13 0 0 1 -.28 1.69 1.08 1.08 0 0 1 -.36.42 1.09 1.09 0 0 0 -.35.43.94.94 0 0 0 -.28.7.57.57 0 0 1 -.28.56h-.43a.57.57 0 0 1 -.28.57l-.42-.85a8.26 8.26 0 0 0 -2.32-2.81q-1.35-1-3-2a9 9 0 0 0 -3.53-1.05 5.58 5.58 0 0 0 -2.77.57 9.13 9.13 0 0 0 -2.4 1.76c-.75.75-1.46 1.5-2.11 2.25a18.14 18.14 0 0 0 -2.26 2.4c-.65.84-1.36 1.69-2.11 2.54a.49.49 0 0 1 .21-.43c.14-.09.17-.23.07-.42l-.84 1.27c.09.09.16.07.21-.07s.12-.16.21-.07-.09.23-.28.42l-.14-.14a4.25 4.25 0 0 1 -.64 1.13 2.46 2.46 0 0 0 -.49 1.12.93.93 0 0 0 -.7.29.28.28 0 0 0 .07.21.31.31 0 0 1 .07.21 1.32 1.32 0 0 0 -.85 1 1.37 1.37 0 0 1 -.7 1.06 2.24 2.24 0 0 1 -.5 1.2 5.28 5.28 0 0 0 -.63.77 3.4 3.4 0 0 0 -.7 1.27 1.28 1.28 0 0 1 -.71.85 29.9 29.9 0 0 0 -1.78 3.18c-.52 1.08-1 2.13-1.48 3.17a12.15 12.15 0 0 1 -.91 1.55 8.18 8.18 0 0 0 -.92 1.83h-.28c-.6 1.36-1.15 2.77-1.67 4.22a15.16 15.16 0 0 0 -1.36 1.76 8 8 0 0 1 -1.48 1.77c-.19-.19-.19-.33 0-.43s.24-.18.14-.28a21.73 21.73 0 0 1 -2.04 2.11c-.94.85-2 1.74-3 2.68l-3 2.61a18.35 18.35 0 0 0 -2.11 2 .53.53 0 0 1 .14-.42.61.61 0 0 0 .14-.42v-.15a.42.42 0 0 1 .28-.14 74.41 74.41 0 0 1 4.16-16.34q3-8 5.84-14.79l.29-.42a20.12 20.12 0 0 1 2-4.3 9.16 9.16 0 0 0 1.26-4.81 6.83 6.83 0 0 0 -.14-1.27 1.34 1.34 0 0 0 -.71-1 .28.28 0 0 0 -.07-.21c-.05 0-.07-.16-.07-.35-.19 0-.21 0-.07.14s.12.14-.07.14a7.2 7.2 0 0 1 -.42-1.48 1 1 0 0 0 -.85-.91.24.24 0 0 0 .28.28c.19 0 .24.09.14.28a5.37 5.37 0 0 0 -1.19-.35 1.1 1.1 0 0 1 -.78-.49.8.8 0 0 1 -1-.5q-.28-.63-.57.21c-.47-.28-.73-.4-.77-.35a.79.79 0 0 0 -.14.35.73.73 0 0 1 -.28.43c-.15.09-.55 0-1.2-.14a29 29 0 0 0 -6.06 4.65l-5.49 5.49a.29.29 0 0 1 -.08.21.33.33 0 0 0 -.07.21 1.35 1.35 0 0 0 -.63.42.62.62 0 0 1 -.49.29l-.85 1.41-.14-.15c-.19.29-.35.52-.49.71a2.41 2.41 0 0 0 -.35.7c-.19-.09-.29-.09-.29 0s-.14.14-.42.14q-1.54 2.11-3.24 4.23t-3.24 4.09a2.89 2.89 0 0 1 .56-1.55v-.29a32.14 32.14 0 0 0 1.91-4.22 17.84 17.84 0 0 1 1.9-3.81 1.81 1.81 0 0 1 .84-1.4 2.6 2.6 0 0 1 .85-1.84 5.46 5.46 0 0 1 .7-1.26 4.9 4.9 0 0 0 .71-1.41 4.62 4.62 0 0 1 .42-1.27 1 1 0 0 1 .35-.42c.14-.1.21-.19.21-.28a1.08 1.08 0 0 0 -.21-1.06 1.91 1.91 0 0 1 -.49-.78c-.56 0-.85-.18-.85-.56a1 1 0 0 0 -.42-.85c-.19-.09-.28-.09-.28 0s-.09.1-.28 0v-.56q-.29-.13-.57.42c-.18-.28-.3-.42-.35-.42a6.41 6.41 0 0 1 -.63-.14.47.47 0 0 0 -.14-.56h-1a.81.81 0 0 1 -.7-.43c0 .1 0 .15-.14.15a.26.26 0 0 0 -.29-.29v.29a.67.67 0 0 0 -.63.42 1.66 1.66 0 0 1 -.77.7.79.79 0 0 1 -.57-.14.66.66 0 0 1 -.42.71 5.54 5.54 0 0 1 -.78 1.83 9.15 9.15 0 0 0 -.91 1.69l-.28-.14v.29a1.08 1.08 0 0 0 -.5.63 5.74 5.74 0 0 1 -.21.78c-.47.94-.91 1.78-1.34 2.53s-.87 1.55-1.33 2.4c-.57 1-1.16 2-1.77 3a13.21 13.21 0 0 0 -1.47 3.1c-.19-.1-.26-.12-.22-.07s0 .07-.07.07l-1.31 3-.23.27-1.13.84-.14-.14a4.49 4.49 0 0 1 -1.34 1.9 5.91 5.91 0 0 0 -1.48 1.9 3.38 3.38 0 0 1 -.63.5 3.1 3.1 0 0 0 -.64.49 18 18 0 0 1 -1.12 1.76 5.46 5.46 0 0 1 -1.41 1.34 20.14 20.14 0 0 0 -2 2.26l-1.65 2.17c-.19 0-.3 0-.35.07a1.38 1.38 0 0 1 -.35.21q-2.4 2.68-4.93 5.28a66.23 66.23 0 0 1 -5.07 4.72 11 11 0 0 1 -3.95 3 9.44 9.44 0 0 1 .28-3.24 28.53 28.53 0 0 1 1-3l.56-2.82a36.26 36.26 0 0 1 2-4.22c.79-1.41 1.57-2.86 2.32-4.37a37.18 37.18 0 0 1 1.83-4.65 5 5 0 0 0 1.13-1.9 5 5 0 0 1 1.13-1.9 2.13 2.13 0 0 1 .21-1.06 3.26 3.26 0 0 0 .35-.91q.42 0 .42-.15c.19-.18.26-.3.21-.35s0-.21.22-.49c.37-.66.72-1.36 1.05-2.11a12 12 0 0 1 1.34-2.26 2.74 2.74 0 0 0 .21-.63c.05-.23.26-.4.64-.49v-.46a1.66 1.66 0 0 0 .63-.91 1.12 1.12 0 0 1 .92-.78c0-.19 0-.26-.08-.21s-.07 0-.07-.21l1-2.68v-1a.37.37 0 0 0 .42-.43.46.46 0 0 0 .07-.42.54.54 0 0 1 .07-.42 3.73 3.73 0 0 0 .57-1 1.48 1.48 0 0 0 -.78-1.62 2.38 2.38 0 0 1 -1.19-1.2 20.35 20.35 0 0 0 -2.19-1 9.44 9.44 0 0 0 -2.6-.64 1.06 1.06 0 0 1 -.78.29 1.63 1.63 0 0 0 -.77.14 1.92 1.92 0 0 1 -1.84 1.41v.42a10.6 10.6 0 0 1 -1.48 2.6c-.61.8-1.24 1.72-1.9 2.75l-3.1 5.78q-1.68 3.38-3.8 7a66.73 66.73 0 0 0 -3.66 7.33 12.62 12.62 0 0 0 -.63 1.46c-.38.48-.78 1-1.2 1.57a15.9 15.9 0 0 1 -2.26 2.46 5.76 5.76 0 0 1 -.91 1.48c-.43.52-.78 1-1.06 1.34l-4.23 5.07c-.56.76-1.12 1.48-1.69 2.19a6.62 6.62 0 0 1 -2.25 1.76.79.79 0 0 0 -.28.56c0 .19-.14.38-.43.56v.43l-.49.49a.86.86 0 0 1 -.63.21 7 7 0 0 1 1.69-2.25 11.12 11.12 0 0 0 1.69-1.83 7.57 7.57 0 0 0 -1.41 1.3c-.42.47-.92 1-1.48 1.69-.66.47-.94.78-.84.92s-.24.35-1 .63a4.44 4.44 0 0 1 -.71-2.39 8.15 8.15 0 0 1 .29-2.26 14.29 14.29 0 0 1 .7-4.43 25.41 25.41 0 0 0 1-4.16 9.12 9.12 0 0 0 1-2.89 6.43 6.43 0 0 1 1.13-2.75 7.34 7.34 0 0 1 .7-1.69.28.28 0 0 0 -.07-.21.29.29 0 0 1 -.07-.21l2.12-5.21q3.24-8.88 7-17.33t6.83-16.2a28.67 28.67 0 0 1 1.55-3.59c.57-1.08 1.18-2.19 1.83-3.31a3.44 3.44 0 0 0 .71-1.34 4.88 4.88 0 0 1 .42-1.2l.42-.42a4.28 4.28 0 0 1 1.08-1.65c.09-.38.19-.73.28-1.06a3.12 3.12 0 0 0 .14-.92c0-.18.05-.3.15-.35a1 1 0 0 0 .28-.21 1.16 1.16 0 0 1 -.07-1.06 1.23 1.23 0 0 0 -.21-1.19.62.62 0 0 0 .14-.43.25.25 0 0 1 .28-.28 7.22 7.22 0 0 0 0-2 2.09 2.09 0 0 0 -1.27-1.5 1.14 1.14 0 0 0 -.42-.7c-.38-.19-.64-.22-.78-.07s-.4.16-.77.07a.22.22 0 0 0 .14.21c.09.05 0 .12-.14.21a2.3 2.3 0 0 1 -.14-.78c0-.23-.14-.35-.43-.35a1.2 1.2 0 0 0 -.49.56 1 1 0 0 1 -.63.57 1.53 1.53 0 0 1 -.57-.57.38.38 0 0 0 -.42.43 2.74 2.74 0 0 1 -.14.84c-.19.1-.31 0-.35-.21s-.17-.3-.35-.21q.13.57-.15.63c-.18.05-.23.12-.14.22a3 3 0 0 1 -.07.63 3 3 0 0 0 -.07.63.34.34 0 0 0 -.35.28.34.34 0 0 1 -.35.29v.56a.12.12 0 0 1 -.14-.14c0-.09-.05-.05-.14.14-.76 1.5-1.55 3-2.4 4.51s-1.64 3-2.39 4.37a19.79 19.79 0 0 1 -1.24 2.76l-1.41 2.54c-.19 0-.28.19-.28.56a.46.46 0 0 0 -.28.43l-.43 1.12a5.83 5.83 0 0 0 -.28 1l-.28.28a3.8 3.8 0 0 1 -.49.7c-.24.29-.45.52-.64.71a.24.24 0 0 1 0-.08c-.26.42-.54.86-.86 1.35a6.17 6.17 0 0 0 -.85 2.11v.14c-.19.47-.37.9-.56 1.27a7 7 0 0 1 -.71 1.13 26.64 26.64 0 0 0 -2.93 5.86 34 34 0 0 1 -2.89 6.2 5.65 5.65 0 0 0 -.21.71 1.06 1.06 0 0 1 -.5.56 14.55 14.55 0 0 0 -.91 1.34q-.78 1.2-1.2 1.2c-.09 0-.19-.12-.28-.36a2.17 2.17 0 0 0 -.42-.63c-.19-.37-.45-.82-.78-1.34a4.68 4.68 0 0 0 -1.06-1.2 6.17 6.17 0 0 0 -1.26-1.19 11 11 0 0 0 -1.27-.78h.56c-.56-.37-1.36-.84-2.39-1.41a6 6 0 0 0 -3.81-.14 1.24 1.24 0 0 0 -1.33-.28 4.45 4.45 0 0 1 -1.77.28c-.56.38-1.08.71-1.55 1s-1 .56-1.55.84a10.15 10.15 0 0 1 -.77.71c-.33.28-.59.52-.77.7l-.57.57a1.82 1.82 0 0 1 -.7.42 4.18 4.18 0 0 1 -.92 1.34 3.89 3.89 0 0 0 -.91 1.34l-.29.28a5.15 5.15 0 0 1 -.84 1.27 30.33 30.33 0 0 1 -2.61 4.57c-1 1.41-1.95 2.92-2.89 4.51a5.05 5.05 0 0 0 -.77 1.27 7.81 7.81 0 0 1 -.63 1.27v-.28c-.19 0-.26.07-.22.21a.6.6 0 0 1 -.07.49 1.46 1.46 0 0 1 -.14.7 5.85 5.85 0 0 0 -.28.71 4.69 4.69 0 0 0 -1 1.58 1.8 1.8 0 0 1 -.08.21q-1.85 2.2-3.76 4.17a.26.26 0 0 0 0-.22c-.47.56-1 1.12-1.48 1.69s-1 1.08-1.48 1.55q-1.69 2-3.24 4a19.63 19.63 0 0 1 -3.52 3.59q1.55-2 3.31-4c1.17-1.36 2.28-2.75 3.31-4.16a34.89 34.89 0 0 0 -3.52 4.09 22.71 22.71 0 0 1 -3.52 3.8 3.16 3.16 0 0 1 -.64 1.06l-.35.35a2.46 2.46 0 0 0 .7-.7 1 1 0 0 1 -.42.84 2.37 2.37 0 0 0 -.7.71 1 1 0 0 1 .42-.85l-.42.42.56-.84a4 4 0 0 0 -1.27 1.27 2.7 2.7 0 0 1 -1.69 1.12.48.48 0 0 1 .57.14 6.85 6.85 0 0 1 -2 1.2c-.94.42-1.64.73-2.11.92 0-.1 0-.14.07-.14s.07-.05.07-.15 0-.09-.07 0-.07.1-.07 0a30.94 30.94 0 0 1 2-8c1-2.34 1.95-4.79 2.89-7.32l.28-.56a.75.75 0 0 1 .07-.71c.14-.19.31-.42.5-.7q2.39-5.92 4.15-9.65t3.45-7q1.69-3.24 3.6-6.76t4.58-9.16c.75-1.31 1.22-2.18 1.4-2.6s.38-.87.57-1.34q.56-1.28 2-4.09c1-1.88 2-3.89 3-6.06s2-4.2 3-6.12a39 39 0 0 0 1.84-4.17 1.08 1.08 0 0 0 .49-.77 1.08 1.08 0 0 1 .5-.78 1.76 1.76 0 0 0 -.22-.84 2.55 2.55 0 0 0 -.49-.71c-.19-.19-.16-.35.07-.49s.31-.31.21-.5a4 4 0 0 0 -.91-1.69 1.54 1.54 0 0 0 -1-.42 1.59 1.59 0 0 0 -.84.21 1.24 1.24 0 0 1 -.5.21 1 1 0 0 1 -1.26 0 7 7 0 0 1 -1.41-1.12c-.47-.1-.73 0-.78.35a.55.55 0 0 1 -.63.49.57.57 0 0 1 -.14.42l-1 .43c-.75 1.5-1.74 3.36-3 5.56s-2.51 4.51-3.87 6.91-2.7 4.72-4 7-2.39 4.18-3.24 5.78a4.11 4.11 0 0 0 -1.12 2 3.71 3.71 0 0 1 -.85 1.76l-4.23 7.61q-.42.7-.42.63a.46.46 0 0 1 .07-.21.46.46 0 0 0 .07-.21q0-.08-.42.63v.46q-1.69 3.25-3.1 6.13c-.94 1.93-1.83 3.85-2.68 5.78-.73 1.66-1.46 3.41-2.18 5.21-.05 0-.09.1-.14.14a6 6 0 0 0 -1.48 1.9 3.38 3.38 0 0 1 -.63.5 3.1 3.1 0 0 0 -.64.49 18 18 0 0 1 -1.12 1.76 5.46 5.46 0 0 1 -1.41 1.34 20.14 20.14 0 0 0 -2 2.26l-1.69 2.25a.55.55 0 0 0 -.35.07 1.38 1.38 0 0 1 -.35.21q-2.4 2.68-4.93 5.28a66.23 66.23 0 0 1 -4.98 4.68 11 11 0 0 1 -4 3 9.44 9.44 0 0 1 .28-3.24 28.53 28.53 0 0 1 1-3l.56-2.82a36.26 36.26 0 0 1 2.05-4.22c.79-1.41 1.57-2.86 2.32-4.37a37.18 37.18 0 0 1 1.83-4.65 5 5 0 0 0 1.13-1.9 5 5 0 0 1 1.13-1.9 2.13 2.13 0 0 1 .21-1.06 3.26 3.26 0 0 0 .35-.91q.42 0 .42-.15c.19-.18.26-.3.21-.35s0-.21.22-.49c.37-.66.72-1.36 1-2.11a12 12 0 0 1 1.34-2.26 2.74 2.74 0 0 0 .21-.63c.05-.23.26-.4.64-.49v-.45a1.66 1.66 0 0 0 .63-.91 1.13 1.13 0 0 1 .92-.78c0-.19 0-.26-.07-.21s-.08 0-.08-.21l1-2.68v-1a.37.37 0 0 0 .42-.43.46.46 0 0 0 .07-.42.54.54 0 0 1 .07-.42 3.73 3.73 0 0 0 .57-1 1.48 1.48 0 0 0 -.78-1.62 2.38 2.38 0 0 1 -1.19-1.2 20.35 20.35 0 0 0 -2.19-1 9.44 9.44 0 0 0 -2.6-.64 1.06 1.06 0 0 1 -.78.29 1.63 1.63 0 0 0 -.77.14 1.92 1.92 0 0 1 -1.84 1.41v.42a10.57 10.57 0 0 1 -1.47 2.6c-.62.8-1.25 1.72-1.91 2.75l-3.1 5.78q-1.68 3.38-3.8 7-1.71 3-3 6c-.37.41-.78.85-1.25 1.31-1 1-2 2-3 3.1s-2 2.09-3 3-1.78 1.72-2.35 2.42c-.28.38-.54.73-.77 1.06a4.18 4.18 0 0 1 -.92.91c-.09 0-.12-.07-.07-.21s0-.16-.21-.07-.05.24.14.42a17.38 17.38 0 0 0 -1.83 1.62 20.23 20.23 0 0 1 -1.69 1.63 8.68 8.68 0 0 1 -2.26 1.69c-1.12.65-2 1.12-2.53 1.4a4.81 4.81 0 0 0 .42-1.19c.09-.43.19-.92.28-1.48l1.41-6.2 1.69-5.21q1-2.68 1.76-4.44c.52-1.18 1.11-2.7 1.76-4.58a23.07 23.07 0 0 1 2-4.3 18 18 0 0 0 1.83-4.29c.09-.75.19-1.41.28-2a10.7 10.7 0 0 1 .42-1.69c.09-.09.09-.12 0-.07s-.09 0 0-.07a2.2 2.2 0 0 0 -.21-1.76 8.71 8.71 0 0 0 -1.06-1.76.94.94 0 0 1 -.7-.28 17.74 17.74 0 0 0 -.63-1.83 1.43 1.43 0 0 0 -1.48-.85c.09 0 0-.14-.28-.42a1.2 1.2 0 0 1 -1-.14 1.49 1.49 0 0 0 -.85-.28 1.39 1.39 0 0 1 -1-.36c-.24-.23-.36-.07-.36.5a.24.24 0 0 0 -.07.28.22.22 0 0 1 -.07.28c-.19-.09-.4-.19-.63-.28a.77.77 0 0 0 -.63 0c0 .19-.14.33-.43.42 0 .19 0 .24.14.14s.15 0 .15.14a4.89 4.89 0 0 1 -.71 1.41c-.28.38-.56.8-.84 1.27a3.61 3.61 0 0 1 -.85 1.06 5.06 5.06 0 0 0 -1 1.19c-.75 1-1.36 1.9-1.83 2.61s-.89 1.32-1.27 1.83-.77 1.06-1.19 1.62-1 1.22-1.62 2a9.79 9.79 0 0 0 -1.62 2 22.54 22.54 0 0 1 -1.34 2 7.49 7.49 0 0 1 -.71 1.13 1.87 1.87 0 0 1 -.84.7c0-.19-.19 0-.56.63s-.66.87-.85.78c-.85 1.32-1.69 2.51-2.54 3.59s-1.74 2.18-2.67 3.31-2 2.3-3.1 3.52-2.35 2.68-3.67 4.37c.76-2.35 1.48-4.55 2.19-6.62s1.45-4.11 2.25-6.13 1.74-4.08 2.82-6.2 2.42-4.43 4-7c-.1 0 0 0 .14-.14s.18-.19 0-.28a2 2 0 0 0 .42-.71 1.71 1.71 0 0 1 .42-.7c.38-.94.85-2 1.41-3.17a3.19 3.19 0 0 0 .14-3 .91.91 0 0 1 -.42-.07.61.61 0 0 0 -.28-.07c-.19-.47-.36-.87-.5-1.2a6.59 6.59 0 0 1 -.38-1.16 1.84 1.84 0 0 1 -.84-.14c0 .1.07.19.21.28s.16.19.07.29a1.28 1.28 0 0 1 -1.06-.43 1.66 1.66 0 0 0 -.91-.56c-.19 0-.29 0-.29.07s-.09.07-.28.07a2.12 2.12 0 0 1 -.77-.21 1 1 0 0 0 -.78-.07c-.09.19-.66.4-1.69.63a5 5 0 0 0 -1.83.64c-.19-.09-.28-.21-.28-.35s-.1 0-.28.35c-.19.09-.28.12-.28.07s0 0-.15.07a8.71 8.71 0 0 1 -.49 1.06c-.14.23-.28.49-.42.77a6.69 6.69 0 0 0 -.42 1.2c-.15.51-.31 1.24-.5 2.18-.19.1-.26.21-.21.35s0 .26-.21.35a2.51 2.51 0 0 0 -.14.71.82.82 0 0 1 -.28.56c-.28.47-.4.76-.35.85s-.08.37-.36.84q-1.12 2.11-2.89 6c-1.17 2.59-2.34 5.21-3.52 7.89-.71 1.63-1.37 3.21-2 4.76-.43 0-1 .09-1.73.17-1.22.14-2.42.33-3.59.57l-2.82.56c-.7.14-.77.12-.21-.07h.42a.38.38 0 0 0 .43-.42c-.38 0-.59 0-.64.14s-.16.05-.35-.14c.09-.29.54-.47 1.34-.57a10 10 0 0 0 2-.42c0-.28 0-.45.07-.49a.57.57 0 0 0 .07-.36 1.62 1.62 0 0 0 -1.2.29c-.51.28-.91.28-1.19 0-.1-.19-.1-.26 0-.22s.14 0 .14-.21a.68.68 0 0 0 -.28.07.84.84 0 0 1 -.57-.07c.28-.47.52-.65.71-.56s.28 0 .28-.42c-.1 0-.17.09-.21.28s-.12.09-.21-.28h.14v-.08a6.7 6.7 0 0 0 .49-.92 2.18 2.18 0 0 0 .21-.77c-.19.18-.26.33-.21.42s0 .09-.21 0l.46-1.73c.38-.19.52-.4.42-.64s-.14-.3-.14-.21a8.58 8.58 0 0 0 .28-2.11v-1.82a9 9 0 0 0 .15-1.55v-1.27a7.87 7.87 0 0 0 -.64-3.24 9.68 9.68 0 0 0 -1.48-2.4 13.31 13.31 0 0 0 -2.25-3.38c-.57-.84-1.13-1.66-1.69-2.46a5.76 5.76 0 0 0 -1.55-1.62 2 2 0 0 0 -.85-.14 2.65 2.65 0 0 1 -1.13-.28 7 7 0 0 0 -2.6-1.34l-3-.92c.75-.47 1.64-1.08 2.68-1.83l2.67-2h-.14l.28-.28a28 28 0 0 1 4.65-3.39 9.16 9.16 0 0 0 2.47-1.76 11.42 11.42 0 0 1 2.61-1.9q3-3.09 6.19-6.62a24.26 24.26 0 0 0 4.93-8 17.25 17.25 0 0 0 1.84-4.93 21 21 0 0 0 .42-5.35 10 10 0 0 0 -1.58-5.56 21.28 21.28 0 0 1 -2.4-4.16.56.56 0 0 0 0-.56 1.17 1.17 0 0 1 -.14-.42l-1.33-1.34a3.28 3.28 0 0 1 -.78-1.52q-2.4-2.11-4.72-3.87a18.91 18.91 0 0 0 -6.13-2.89c-.47.09-.73.12-.77.07s-.17 0-.36.07c.19-.28.17-.45-.06-.49a.4.4 0 0 0 -.5.21 1 1 0 0 0 -.84-.18 1.91 1.91 0 0 1 -.88-.13.11.11 0 0 0 .1 0 .28.28 0 0 1 .21-.07h-.56c-.1 0-.14 0-.14.07s0 .07-.14.07v-.15a1.54 1.54 0 0 0 -.89-.08 1.43 1.43 0 0 1 -.8-.07h.42l-.71-.56c.1.19-.18.38-.84.56l.14.15a14.84 14.84 0 0 0 -1.55.07 2.33 2.33 0 0 1 -1.27-.22h1.06a1.63 1.63 0 0 0 .77-.14c-.82.08-1.66.11-2.52.13h.3c-1.88.48-3.62.85-5.21 1.13s-3.06.52-4.37.71c-.47 0-.63 0-.49-.15s-.07-.14-.64-.14c-.09.1-.07.14.07.14s.22 0 .22.15a38 38 0 0 0 -5.22 1.47q-2.56.94-5.36 2.06a.13.13 0 0 1 .14-.14c.09 0 .14-.1.14-.29l-2.11.85h.14c.19 0 .16.09-.07.28a1.07 1.07 0 0 1 -.64.28c0-.18.05-.28.15-.28l-.87.38a.46.46 0 0 1 -.42.29c.09 0 .14 0 .14-.15a.17.17 0 0 1 0-.1l-2.54.96h.71c0 .1-.29.14-.85.14a88 88 0 0 0 -11.83 6.34l-5.64 3.8a5.7 5.7 0 0 0 -1.34.78l-1.19.94a4.43 4.43 0 0 0 1.26-.78 2.67 2.67 0 0 1 1.27-.63q-2.82 2.26-5.45 4.23c-1.74 1.32-3.5 2.77-5.29 4.37a.13.13 0 0 1 -.14-.14l-.14-.14c0 .19 0 .28.07.28s.07 0 .07.14l-2.11 2h-.14q-2.12 2-4 4a15.55 15.55 0 0 0 -3 4.86l.21.42a1.16 1.16 0 0 1 .07.43c.18 0 .23 0 .14-.08s-.1-.11 0-.21q.29.28.42 0c.09-.18.19-.23.28-.14a6.24 6.24 0 0 0 -.56 1.13 3 3 0 0 0 0 1.83c.09-.19.19-.28.28-.28s.09.09 0 .28c.09 0 .16-.12.21-.35s.12-.26.21-.07a11.11 11.11 0 0 0 -.14 1.76 1.8 1.8 0 0 0 .43 1.34.5.5 0 0 1 .56-.57 1.13 1.13 0 0 1 -.28.64.55.55 0 0 0 -.14.63 7.26 7.26 0 0 0 .42-1.06 1 1 0 0 1 .42-.63l.28.14v.14c.1.19.12.19.07 0s0-.23.21-.14v.78c0 .33-.09.54-.28.63.19.1.21.24.07.42s-.11.33.07.43.14-.1.14-.29v.14a.29.29 0 0 0 .08.22 1.89 1.89 0 0 0 .77.07c.19 0 .28 0 .28-.07s.09 0 .28.07a1.61 1.61 0 0 0 -.28 1.12c.28 0 .45-.18.5-.56s.21-.56.49-.56a1 1 0 0 1 .63.7 2.86 2.86 0 0 0 .21.71c.47-.1.75-.05.85.14s.37.19.84 0v.28a.13.13 0 0 0 .14.14.57.57 0 0 1 .36.07 1.21 1.21 0 0 0 .35.21c0-.37.12-.58.35-.63a2.36 2.36 0 0 0 .78-.35l1-2.12a5.82 5.82 0 0 1 1.06-2.46 12.18 12.18 0 0 1 2-2.33q3.66-3.66 7.82-7.18t8.68-6.78a126.4 126.4 0 0 1 15.07-8.1 74.93 74.93 0 0 1 17-5.42l1.41-.28a1.91 1.91 0 0 1 1.26.14c.19-.09.28-.16.28-.21s.1-.07.29-.07c1.59-.1 3.31-.21 5.14-.35a27.24 27.24 0 0 1 5.28.07 15.12 15.12 0 0 1 6.91 2.67 4.6 4.6 0 0 1 1 1.69 3.17 3.17 0 0 1 .07 2 1.29 1.29 0 0 1 .35.78 6.06 6.06 0 0 1 .07.92 13.33 13.33 0 0 1 -2.39 5 18.2 18.2 0 0 0 -2.54 4.29h-.14c0 .19-.05.31-.14.36s-.14.16-.14.35a4.36 4.36 0 0 0 -1.76 1.55 6.05 6.05 0 0 1 -1.62 1.69 1.39 1.39 0 0 1 -.42.49 8.83 8.83 0 0 0 -.85.78 1.68 1.68 0 0 0 -1 1.12c-.66.66-1.18 1.15-1.55 1.48a8.77 8.77 0 0 0 -1.13 1.2 4.65 4.65 0 0 1 -.71.14q-3.82 3.21-7.98 6.51a93.37 93.37 0 0 1 -8.66 6.13q2-1 4-2.25c1.36-.85 2.55-1.64 3.59-2.4a29.25 29.25 0 0 1 -5.71 4c-1.33.71-2.69 1.4-4 2.09a1.81 1.81 0 0 0 .38-.26l.63-.64c-.75.38-1.45.76-2.11 1.13s-1.36.8-2.11 1.27l1-.42a36.09 36.09 0 0 1 -3.73 2.6q-1.77 1.06-3.87 2.19h.56a4 4 0 0 1 -1.48 1 19.72 19.72 0 0 1 -1.9.57h-.14c0 .19-.05.28-.14.28s-.15.05-.15.14v.14c.66-.19 1.25-.37 1.77-.56a3.3 3.3 0 0 0 1.19-.71.44.44 0 0 1 .29.14 8.88 8.88 0 0 1 -1.55 1 6.12 6.12 0 0 1 -2 .56.86.86 0 0 1 .28-.56 1.06 1.06 0 0 1 .15-.42 1.67 1.67 0 0 0 -.57.21c-.28.14-.47.07-.56-.21q3.24-5.35 7.11-10.85t8-10.43a2.42 2.42 0 0 0 .64-.49 3.39 3.39 0 0 1 .91-.63 16.44 16.44 0 0 1 1.82-3.32 19.26 19.26 0 0 0 2-3.45c.18 0 .25-.11.21-.35s.12-.35.49-.35a1.91 1.91 0 0 1 .92-1.34q.77-.49.63-2a3.38 3.38 0 0 0 -.49-2.05 9.42 9.42 0 0 1 -.71-1.76 15 15 0 0 0 -1.62-.91 2.11 2.11 0 0 1 -.91-.92l-.85-.17a1.91 1.91 0 0 0 -1.48-1 4.71 4.71 0 0 1 -1.9-.85 6.27 6.27 0 0 1 -.49.78c-.24.33-.59.35-1.06.07a.93.93 0 0 0 -.21.35.63.63 0 0 1 -.35.35q-2.11 2.3-4.09 4.66c-1.31 1.6-2.63 3.33-3.94 5.21a49.33 49.33 0 0 0 -4 4.86c-1.31 1.83-2.49 3.55-3.52 5.14q-2.11 3-4.08 5.43t-4 5q-2.72 4.36-5.55 8.88t-5.2 8.87l-3.66 7q-1.7 4.09-3.24 7.89c-1 2.54-2 5.31-3 8.32a43.18 43.18 0 0 1 -.9 5.04c-.43 1.74-.87 3.4-1.34 5-.1 1-.24 2.25-.43 3.66a12.47 12.47 0 0 0 0 3.67 6 6 0 0 0 .29 1.76 1 1 0 0 1 -.43 1.33v.15l.14.28a2.3 2.3 0 0 0 -.7 1.69 17.1 17.1 0 0 0 -5.49 3.52 4.88 4.88 0 0 1 -.71.56c-.28.19-.66.47-1.13.85a.79.79 0 0 1 -.2.53v-.14a.42.42 0 0 0 -.28-.14 1 1 0 0 0 -.63.78c0 .32-.12.35-.22.07-.09 0-.16.18-.21.56s-.16.42-.35.14c0 .37-.09.59-.28.63a2.41 2.41 0 0 0 -.56.22c.18 0 .18 0 0 .14s-.19.23 0 .42a2.64 2.64 0 0 0 1.33-1.06 2.19 2.19 0 0 1 1.48-.91 37.71 37.71 0 0 1 3.81-3.6 28.55 28.55 0 0 1 4.22-2.88c0 .18.17.28.5.28s.49.09.49.28a.28.28 0 0 1 -.07.21 1.38 1.38 0 0 0 -.21.35c.09 0 .21-.12.35-.35s.3-.26.49-.07a38.36 38.36 0 0 1 -3.24 2.11 12.56 12.56 0 0 0 -3 2.4 12.11 12.11 0 0 0 2.4-1.76 7.37 7.37 0 0 1 2.11-1.48c0 .18 0 .28-.07.28s-.07 0-.07.14a1.1 1.1 0 0 0 .78-.21l.35-.35a4.72 4.72 0 0 1 -.92 1.19 7.23 7.23 0 0 1 -1.05.92 4.72 4.72 0 0 0 -1.69.85c-.47.37-1 .75-1.55 1.12a1.25 1.25 0 0 1 .84-.7 1.28 1.28 0 0 0 .85-.85 13.4 13.4 0 0 0 -2.82 2c-.85.79-1.64 1.57-2.4 2.32a1.6 1.6 0 0 0 -1.05.42 1.18 1.18 0 0 0 -.5.85.33.33 0 0 0 -.35.28.33.33 0 0 1 -.35.28q0-.42.21-.42c.14 0 .21-.1.21-.28q-.29-.15-.84.84a5.14 5.14 0 0 1 -1.48 1.62 3.31 3.31 0 0 0 -1.2 1.34c-.19 0-.26 0-.21-.07s0 0-.21.07a5.38 5.38 0 0 1 -1.9 2.33 3.63 3.63 0 0 0 -1.49 2.83 2 2 0 0 0 -.35.21 1.83 1.83 0 0 1 -.36.22.24.24 0 0 1 .14-.22c.1 0 0-.07-.14-.07-.09.19-.23.57-.42 1.13s-.42.75-.7.56c.19.19.21.31.07.36a.82.82 0 0 0 -.36.21c-.37.18-.56.21-.56.07s0-.21-.14-.21a2.37 2.37 0 0 0 -.35.7.92.92 0 0 1 -.21.42v-.56a7.79 7.79 0 0 1 -.78.35 1.07 1.07 0 0 1 -.35.07 7.91 7.91 0 0 0 -.14 1.48 1 1 0 0 1 -.71 1.06.38.38 0 0 0 -.14-.28c0-.28.07-.45.21-.49s.22-.12.22-.22a.47.47 0 0 0 -.43.29c-.09.18-.23.09-.42-.29a4.17 4.17 0 0 1 .85-1.62 4.19 4.19 0 0 0 .85-1.77 9.13 9.13 0 0 0 -1.76 2.4 7.4 7.4 0 0 1 -1.76 2.25 10.7 10.7 0 0 0 -.42 1.69 1.72 1.72 0 0 0 .13 1.26 1.18 1.18 0 0 0 .49.77 1.48 1.48 0 0 1 .49 1.06c-.18-.09-.28 0-.28.28 0 .1 0 .1.14 0s.14-.05.14.14v.57c.47.09.71.3.71.63a.89.89 0 0 0 .42.78v.91a1.84 1.84 0 0 1 -.14.78q-.42-.15-.21 0l.56.35a4.66 4.66 0 0 0 .71.35c.23.09.4.09.49 0a1.55 1.55 0 0 1 .28.64.9.9 0 0 0 .56.63 2.29 2.29 0 0 0 .92.14c.42 0 .63.09.63.28.57 0 .85.14.85.42.09-.18.26-.23.49-.14a1.46 1.46 0 0 0 .5.14c.09 0 .14.1.14.29a.25.25 0 0 0 .28.28 5.6 5.6 0 0 0 4.15.63 13 13 0 0 1 3.88-.35q2.53-1 5.35-2t5.78-2.26c0-.19-.05-.28-.14-.28l3.62-1.79a2 2 0 0 1 1.41-.42v-.14a4.69 4.69 0 0 0 1.76-1.2 1.49 1.49 0 0 1 1.2-.64 4.65 4.65 0 0 0 1.83-.56 7.35 7.35 0 0 0 1.41-1.13l.42-.7a48.3 48.3 0 0 0 5.57-3c1.83-1.13 3.63-2.25 5.42-3.38.19.09.3.07.35-.07a.32.32 0 0 1 .35-.21v-.14a.4.4 0 0 1 .14-.28.41.41 0 0 1 .15-.29 2.19 2.19 0 0 0 1.55-1.19 1.43 1.43 0 0 1 1.44-.9h-.14l1.69-1.27.85-.56c0 .19.05.28.14.28h.14c.47-.47.85-.87 1.13-1.2a4.28 4.28 0 0 1 1.13-.91l.7-.57-1.83 1.13c.56-.47 1.29-1 2.18-1.62a29.18 29.18 0 0 0 2.47-1.9 5.25 5.25 0 0 1 -1.41 1.41l3.1-2.12 8.45-7.32a4 4 0 0 0 1.4-1.04c.47-.52.89-.73 1.27-.63a.46.46 0 0 1 .21-.42.49.49 0 0 0 .21-.43 16.22 16.22 0 0 1 1.62-1.12c.61-.38 1.2-.76 1.76-1.13a1.42 1.42 0 0 1 .42-.78 9.2 9.2 0 0 0 .71-.91 1.12 1.12 0 0 1 .84-.92c.47-.14.75-.3.85-.49a25.61 25.61 0 0 1 3.17-3.66 20.56 20.56 0 0 0 3.17-3.95 4.05 4.05 0 0 1 1.27-1.27.55.55 0 0 1 .07-.35 2 2 0 0 0 .21-.35.32.32 0 0 1 .35.21q.08.21.21.21a2.28 2.28 0 0 1 1-2 1.55 1.55 0 0 1 .7-1.27c0 .19 0 .28.14.28a3.15 3.15 0 0 0 1.27-1.55 1.52 1.52 0 0 1 1.41-1c-.47-.75-.45-1.22.07-1.41a1.79 1.79 0 0 0 1.07-.8c0-.09-.1 0-.29.14s-.23.15-.14-.14c0-.09.14-.14.43-.14l.14-.28c.84-.28 1.69-.54 2.53-.77a18.5 18.5 0 0 0 2.54-.92h.63a6.28 6.28 0 0 0 1.06-.14v-.14a7.49 7.49 0 0 1 -1.41.14v-.56c.94-.19 2.07-.36 3.38-.5.27 0 .54 0 .81-.05-.1.26-.21.52-.31.77a9.14 9.14 0 0 0 -1.06.2c.35-.05.69-.08 1-.11v.11a32.79 32.79 0 0 0 -1.69 5.35l-.62 2.82a12.73 12.73 0 0 0 -.35 2.32c-.05.8-.07 1.58-.07 2.33a16.88 16.88 0 0 0 .7 3.66h.72a2.64 2.64 0 0 0 1.12 1.55 1.38 1.38 0 0 0 1 1.76 2 2 0 0 0 2.11-.21c.09.19.35.31.78.35a11.25 11.25 0 0 0 1.33.07 5.8 5.8 0 0 0 1.34-.14 3.77 3.77 0 0 0 .92-.28q.28.28.21.42c0 .1.16 0 .63-.28-.28-.09-.3-.14-.07-.14s.31-.14.22-.42a23.43 23.43 0 0 0 4.5-4.3q1.83-2.33 3.81-4.72 1.83-3 4.36-6.55t4.51-6.41h.28q.15-.28 0-.21c-.09 0-.14 0-.14-.07a17.36 17.36 0 0 0 1.13-1.48 7.88 7.88 0 0 1 1-1.2 9.46 9.46 0 0 1 1.55-2c-.1.47-.19.89-.28 1.27a11.23 11.23 0 0 1 -.43 1.27q-1.26 3.94-2.18 7.11c-.61 2.11-1.29 4.49-2 7.12a15.14 15.14 0 0 0 -.5 3.52 10.23 10.23 0 0 0 .36 3.38 5.15 5.15 0 0 0 1.19 2 8.4 8.4 0 0 1 1.48 2.19 3.31 3.31 0 0 0 2.82 1.83c.09.28.37.47.84.56a7.49 7.49 0 0 0 1.41.14h2.54l.7-.56.29.56c.09-.09.07-.19-.08-.28s-.16-.19-.07-.28a.26.26 0 0 0 .29.07c.09-.05.18 0 .28.07a8.64 8.64 0 0 0 2.11-1 29.76 29.76 0 0 0 6.83-6.41c1.18-1.54 2.42-3 3.7-4.51a23.55 23.55 0 0 0 -.24 3.24 13.37 13.37 0 0 0 .84 4.72 5 5 0 0 0 2.4 2.26 5.22 5.22 0 0 0 3.45 2.11 14 14 0 0 0 4.86.28 31.09 31.09 0 0 0 3.73-.56 4.62 4.62 0 0 0 2.89-1.55c-.28 0-.38 0-.28-.14a9.51 9.51 0 0 1 2.25-1.9 17.88 17.88 0 0 0 2.4-1.77 3 3 0 0 1 .42-.84l.14-.56a67.22 67.22 0 0 0 5.12-5.15 14.47 14.47 0 0 0 -.05 3.88c-.09.75-.19 1.38-.28 1.9a1.64 1.64 0 0 0 .56 1.48 1 1 0 0 0 .35.21q.21.08.21.21a2 2 0 0 0 .15 1.69 4.84 4.84 0 0 0 1 1v.42a7.92 7.92 0 0 0 1.27 1.27 4.43 4.43 0 0 0 2.11.56 2.22 2.22 0 0 0 1.13.43c.56.09 1.15.16 1.76.21s1.2.07 1.76.07a4.39 4.39 0 0 0 1.27-.14c.47-.1.84-.19 1.13-.28l.84-.29a3.35 3.35 0 0 1 .85-.42 3.3 3.3 0 0 0 .84-.42 20.82 20.82 0 0 0 4.51-4.09 45.07 45.07 0 0 1 4.09-4.36c.09-.1.11-.17.07-.22s0-.11.07-.21c.65-.89 1.39-1.79 2.18-2.69a11.6 11.6 0 0 0 -.35 2.69 9.14 9.14 0 0 0 .42 4.3 9.93 9.93 0 0 0 1.83 3.17c.76.19 1.41.37 2 .56a14.17 14.17 0 0 1 1.69.71 7.11 7.11 0 0 0 .7.42l.56.28a1.14 1.14 0 0 0 .78 0 1 1 0 0 1 .91.14 16 16 0 0 1 1.77-.14 2.61 2.61 0 0 0 1.33-.42 2.67 2.67 0 0 0 1.2-.56 2.62 2.62 0 0 1 1.34-.57 5.73 5.73 0 0 1 1.83-1.41 6.85 6.85 0 0 0 1.83-1.26c.28-.29.38-.43.28-.43a1.58 1.58 0 0 1 .5-.35c.14 0 .3-.12.49-.21a.48.48 0 0 0 .14-.35c0-.14.09-.26.28-.36l.85-.42a3.16 3.16 0 0 0 1.13-1.13c.65-.75 1.31-1.45 2-2.11a12 12 0 0 0 1.69-2.11l.14-.28a32.79 32.79 0 0 1 3.38-4.16 23 23 0 0 0 3.24-4.3 15.07 15.07 0 0 0 -.49 2c-.14.75-.26 1.5-.35 2.25.18 0 .3-.14.35-.42a1.23 1.23 0 0 1 .35-.71c-.19 1-.4 2.26-.63 3.67s-.4 2.53-.5 3.38c.19 1.31.33 2.49.43 3.52a6 6 0 0 0 1 2.82 8.89 8.89 0 0 0 .85 1.2 9.34 9.34 0 0 1 .7.91l.56.42a10 10 0 0 0 5.85 1.06 14.44 14.44 0 0 0 5.43-1.62h.42l2.25-1.69a9.4 9.4 0 0 1 1.55-1.48 7.57 7.57 0 0 0 1.41-1.34 3.83 3.83 0 0 0 .95-1.14 12.71 12.71 0 0 0 .74 3.11 5 5 0 0 0 2.39 2.26 5.27 5.27 0 0 0 3.46 2.11 14 14 0 0 0 4.86.28 31.09 31.09 0 0 0 3.73-.56 4.65 4.65 0 0 0 2.89-1.55c-.28 0-.38 0-.28-.14a9.31 9.31 0 0 1 2.25-1.9 17.88 17.88 0 0 0 2.4-1.77 3 3 0 0 1 .42-.84l.14-.56a68.86 68.86 0 0 0 6.22-6.5.15.15 0 0 0 0 .07 16.52 16.52 0 0 0 -.14 5.77.63.63 0 0 1 -.71.14.27.27 0 0 0 .42.14c.19-.09.33-.09.43 0s0 .29-.29.29a1.84 1.84 0 0 1 .43.7.93.93 0 0 1 0 .7.44.44 0 0 0 -.14-.28c-.1-.09-.19 0-.29.14a1.7 1.7 0 0 1 .64 1 1.16 1.16 0 0 0 .63.85.51.51 0 0 0 .57-.08.93.93 0 0 1 .56-.21 4.13 4.13 0 0 1 .77 1.48 1.09 1.09 0 0 0 1.2.78c0-.19-.09-.26-.28-.21s-.28 0-.28-.21v-.34c-.19.1-.31.07-.35-.07a.3.3 0 0 1 .07-.35l2.39.42a5.3 5.3 0 0 0 1.55-1.69.76.76 0 0 1 .35.28.8.8 0 0 0 .36.29v-1a.84.84 0 0 1 .42-.71c0 .19 0 .22.07.08s.12-.17.21-.08a5.45 5.45 0 0 1 .49-1.54 5.68 5.68 0 0 0 .5-1.41 31.37 31.37 0 0 0 3.42-5.16 29.87 29.87 0 0 1 3.45-5.22 108.55 108.55 0 0 1 8-11.06q4.37-5.28 8.88-10.21-2.11 4.79-4.09 9.58a55.39 55.39 0 0 0 -3.1 10.56c-.47.19-.61.48-.42.85a.48.48 0 0 0 .14-.35c0-.14.09-.17.28-.07a11.51 11.51 0 0 1 -1.27 3 1.15 1.15 0 0 1 .21-.71 1 1 0 0 0 .22-.56 4.77 4.77 0 0 0 -.57.7.51.51 0 0 0 0 .71 2.47 2.47 0 0 0 -.35 1.12 1.7 1.7 0 0 1 -.35 1c-.19 1.41-.38 2.91-.57 4.51a6.92 6.92 0 0 0 .71 4.22 5.85 5.85 0 0 1 .28.71 1.49 1.49 0 0 0 .28.56l.71.43c.09.09.11.16.07.21s0 .16.07.35.35.26.49.21.3 0 .49.21a12.37 12.37 0 0 0 1 1.2 10.85 10.85 0 0 0 1.69 1.48 26.06 26.06 0 0 1 2.61.14c1 .09 1.57.28 1.76.56-.38.38-1.18.47-2.4.28a2.51 2.51 0 0 0 2.82-.28 1 1 0 0 0 1.13-.07 1.71 1.71 0 0 1 1.12-.35.24.24 0 0 1 .22.14.22.22 0 0 0 .21.14 2.14 2.14 0 0 0 1.48-.84c.51-.57.91-1 1.19-1.27.85-.66 1.86-1.41 3-2.26a9.23 9.23 0 0 0 2.61-2.67c.21-.22.44-.45.68-.68l.16.82a4.39 4.39 0 0 0 1.41 1.34 5.15 5.15 0 0 1 1.41 1.19 8.23 8.23 0 0 1 .77 1.27 2.59 2.59 0 0 0 .78 1h.56l.43.7a1.34 1.34 0 0 0 1.47.43 8.76 8.76 0 0 0 1.48-.71 3.35 3.35 0 0 1 .64-.35c.14 0 .4-.12.77-.21l1.41-.42a19 19 0 0 1 2.26-.71 7.63 7.63 0 0 0 2.25-1 12.59 12.59 0 0 0 2.11-1.62c.66-.61 1.36-1.29 2.12-2a5.05 5.05 0 0 0 1-1c.28-.38.57-.8.85-1.27l6.76-7c-.09.38-.23.94-.42 1.69s-.33 1.37-.42 1.84a1.15 1.15 0 0 1 -.43.14l-.28.14h-.14a3 3 0 0 0 -.42 1 2.07 2.07 0 0 1 -.57 1.06.12.12 0 0 0 .14.14c.1 0 .1 0 0 .14-.37.94-.56 1.29-.56 1.06a.7.7 0 0 0 -.14-.49 1 1 0 0 0 .28-.71 1.21 1.21 0 0 0 -.42.85l-.28.84a2.15 2.15 0 0 1 -1 1.13 2.46 2.46 0 0 1 -.7.7 12.72 12.72 0 0 0 -2.26 2.26.42.42 0 0 0 -.28.14l-.42.42-.28.14q-3.52 3.11-7.75 6.9a93.88 93.88 0 0 0 -7.47 7.47l1.83-2.53a24.25 24.25 0 0 0 -3.17 3.59q-1.47 2-3 4.3a8.47 8.47 0 0 0 -1.69 2l-2.11 2.39q-1 .28-1 1l.57-.42a4 4 0 0 0 -.71.84.12.12 0 0 0 -.14-.14.22.22 0 0 1 -.14.21c-.09.05-.14.16-.14.35l-.28.43v-.29a2 2 0 0 1 -.49.78 2 2 0 0 0 -.46.94h.05a5 5 0 0 1 -1 2.14 17.67 17.67 0 0 0 -1.41 2v.57a1.25 1.25 0 0 0 -.85.42l.57-1.13a9.71 9.71 0 0 1 .56-1 2.71 2.71 0 0 1 .49-.63q.36-.36.21-.63c-.46.65-.93 1.34-1.4 2s-.94 1.43-1.41 2.18l-.28.28-.43.57-.84.7a2.05 2.05 0 0 0 -.35.85 1.28 1.28 0 0 1 -.36.7 1.48 1.48 0 0 1 -.56 1.27.42.42 0 0 1 -.14.28.57.57 0 0 0 -.14.42 3.62 3.62 0 0 0 -.92 1.34 4.19 4.19 0 0 1 -.63 1.2v.28a9.45 9.45 0 0 1 -.64.85 1.3 1.3 0 0 0 -.21 1.12.7.7 0 0 0 -.35.5 1.25 1.25 0 0 1 -.35.63.42.42 0 0 0 -.28.14 2.79 2.79 0 0 1 -.5 1.76 3.43 3.43 0 0 0 -.63 1.62l.28-.42-.28.56a23.88 23.88 0 0 0 -1 2.75c-.28 1-.56 2-.84 3.17a3.65 3.65 0 0 0 -.07 1.2 2.34 2.34 0 0 1 -.21 1.2.77.77 0 0 1 -.07.28 1.38 1.38 0 0 0 -.07.56 1.86 1.86 0 0 0 .21 1.9 4.48 4.48 0 0 1 .63 2.33 1.82 1.82 0 0 0 1 .84 1.28 1.28 0 0 1 .84 1c-.75.28-1.27.21-1.55-.21a8.44 8.44 0 0 0 -1-1.2 5.55 5.55 0 0 0 1.41 1.69 1.93 1.93 0 0 1 1.4.28c0-.19-.07-.28-.21-.28s-.16-.05-.07-.14a.77.77 0 0 1 .78.49 1.66 1.66 0 0 1 .07 1.06 1.91 1.91 0 0 0 1.41.77 7.67 7.67 0 0 0 1.83-.07 2.76 2.76 0 0 0 1.12-.14c0-.09-.07-.14-.21-.14s-.16-.09-.07-.28a2.51 2.51 0 0 0 1.83.56 18.18 18.18 0 0 0 2.68-.21 14.24 14.24 0 0 0 2.61-.63 7.89 7.89 0 0 0 1.62-.71v-.14a.12.12 0 0 0 .14.14h.42a2.93 2.93 0 0 1 1.55-1.33 5.93 5.93 0 0 0 1.83-1.2.74.74 0 0 0 .5-.63 2.24 2.24 0 0 1 .49-1.06c.09 0 .12 0 .07.14s0 .14.07.14a29.65 29.65 0 0 1 2.25-2 7 7 0 0 0 1.84-2.33h.14a3 3 0 0 0 1.05-1.62 2.29 2.29 0 0 1 1.34-1.48 3.33 3.33 0 0 0 1-1.55 4.69 4.69 0 0 0 2.18-2.39 11.87 11.87 0 0 1 1.76-3 7 7 0 0 0 .57-1.13 2.61 2.61 0 0 1 .7-1 1.26 1.26 0 0 0 .7-.85 3.24 3.24 0 0 1 .43-1 .12.12 0 0 0 .14.14 2.8 2.8 0 0 0 -.14-.85h-.28c-.29 0-.34 0-.15-.14l1-2a7.18 7.18 0 0 1 .85-1.27 12.23 12.23 0 0 0 -.78 1.48 11.92 11.92 0 0 0 -.63 1.76c.47-.75.93-1.5 1.41-2.25a16.7 16.7 0 0 0 1.26-2.54h.14v-.28l.43-.85a4.87 4.87 0 0 0 1-2 10.88 10.88 0 0 1 .85-2.25q.29-.71.63-1.41c.24-.47.45-.94.64-1.41a1.33 1.33 0 0 1 .28-.42.62.62 0 0 0 .14-.43c.19-.09.23-.16.14-.21a.24.24 0 0 1 -.14-.21l.56-.84c.57-1.13 1.13-2.28 1.69-3.46s1.08-2.37 1.55-3.59q2.68-6.33 4.72-12.26t4.16-11l.42-.43c0-.09 0-.32.07-.7s0-.61-.07-.71a17.23 17.23 0 0 1 2-1.19c1-.52 1.34-.82 1.06-.92 0-.19.37-.47 1.13-.84s1.17-.8 1.27-1.27l1-.85v.43a.33.33 0 0 0 .35-.29 1.71 1.71 0 0 0 .07-.42l.57-.56a2.33 2.33 0 0 1 .56-.43.45.45 0 0 1 -.28.43.86.86 0 0 0 -.42.42 2.07 2.07 0 0 0 1-.7v-.29a21.79 21.79 0 0 0 1.69-1.55 8.7 8.7 0 0 1 1.84-1.4 2.21 2.21 0 0 1 -.36.49.67.67 0 0 0 -.21.49 3.1 3.1 0 0 1 .64-.49c.23-.14.25-.45.07-.92a5.93 5.93 0 0 0 1.55-1.12 3.87 3.87 0 0 1 1.55-1l-1.13 1.27 1.41-1.27a1.27 1.27 0 0 0 .84-.7v-.14c.94-.85 1.71-1.53 2.33-2l1.85-1.5q.84-.7 1.83-1.41l2.18-1.59h-.07l.13-.11a.13.13 0 0 1 0 .06l.31-.23a.37.37 0 0 0 -.12 0l.68-.58a.94.94 0 0 0 .7-.28h-.28l2.11-1.34a18.17 18.17 0 0 0 2-1.48 12.53 12.53 0 0 0 -3.52 1.9 29.25 29.25 0 0 1 -3.28 2.19zm-12.11 6.49c.19.18.14.28-.14.28zm-234.63-29.94a1.75 1.75 0 0 0 .49.35.79.79 0 0 1 -.84-.28c.09-.19.21-.21.35-.07zm-87.84-49.38.14-.14h.28c0 .09-.14.14-.42.14zm-55.65 131.58v-1.12a3.36 3.36 0 0 1 -.77 1.33 6.49 6.49 0 0 1 -.92.78c-.28 0-.3-.12-.07-.35s.12-.36-.35-.36c.28-.75.52-1.33.7-1.76a6.67 6.67 0 0 0 .43-1.33c.19.18.33.28.42.28a10.27 10.27 0 0 1 .84 1c.38.45.29.97-.28 1.53zm1.1-2a.1.1 0 0 0 0-.08c0-.19 0-.28.14-.28a.36.36 0 0 1 -.14.33zm81.39-80.7a3.34 3.34 0 0 1 1.2.29 7.26 7.26 0 0 0 2.18.91 4.19 4.19 0 0 1 1.9.92c-.75-.28-1.71-.61-2.89-1a15.73 15.73 0 0 0 -3.59-.7 2.5 2.5 0 0 1 1.2-.42zm-2.19-1c0-.05.1-.07.29-.07 0 .09-.07.19-.21.28s-.26 0-.36-.14h.14c.1-.05.14-.07.14-.12zm-.56-.49c0-.1.09-.15.28-.15a1.32 1.32 0 0 0 -.21.29c0 .09-.16.14-.35.14.19-.15.28-.24.28-.33zm-.42 1.31c0 .38-.14.43-.42.14 0-.05.14-.14.42-.14zm-9.79-4.86a1.26 1.26 0 0 0 .77-.35 2.12 2.12 0 0 0 .57-.18l-2 1a.73.73 0 0 1 .66-.43zm-7.82 5.86a.57.57 0 0 1 .42-.14c.09-.37.52-.47 1.27-.28a.4.4 0 0 1 -.49.21 1.53 1.53 0 0 0 -.78.07l-.84.42a1.61 1.61 0 0 0 .42-.28zm-33.67 63.29-.28.28a.24.24 0 0 1 .28-.28zm-1.83 1.12c-.1 0-.14.1-.14.28s0 .29-.15.29c-.09-.38 0-.57.29-.57zm0 .78s-.05.07-.13.07h-.16a1.11 1.11 0 0 0 .28-.07zm-1.68-6.06a.91.91 0 0 1 .56-.21.32.32 0 0 1 -.21.35.93.93 0 0 0 -.35.21c-.2-.09-.2-.21-.01-.35zm.56 6.27c0 .19-.1.23-.28.14-.01-.19.08-.24.27-.14zm-1.67-6.06a10.44 10.44 0 0 1 -3.38 2.4 24.49 24.49 0 0 1 3.38-2.4zm-3.66 8.88a4.46 4.46 0 0 1 -1 1.27 7.4 7.4 0 0 1 .97-1.27zm-1.34 1.83q0 .42-.57.42-.13 0 0-.21a.66.66 0 0 1 .57-.21zm-.71.42a3.1 3.1 0 0 0 -.49.64.69.69 0 0 1 -.63.35 1.31 1.31 0 0 0 .49-.5 1.12 1.12 0 0 1 .67-.49zm-3.1-5.63a3 3 0 0 0 1.55-1.69 3.61 3.61 0 0 1 .71.14 10.18 10.18 0 0 1 -2 1.55 5.3 5.3 0 0 0 -1.7 1.54 2.52 2.52 0 0 1 1.48-1.54zm1.65.29a1.24 1.24 0 0 0 -.66.69q.04-.43.7-.69zm-1.22 6.33a12.25 12.25 0 0 0 -1.13 1.34 14.09 14.09 0 0 1 -1 1.19l-.28.28a11.94 11.94 0 0 1 2.45-2.81zm-6.91-.28q0 .27-.84.84zm-3.71 4.82a1.1 1.1 0 0 0 .56-.64l.14-.42-.28 1.13a5.15 5.15 0 0 1 .5-.85 2.58 2.58 0 0 0 .35-.84h-.19l1.26-2a9.53 9.53 0 0 1 -1.05 2.4c-.42.65-.87 1.36-1.34 2.11a.57.57 0 0 1 .14-.42l-.28.42c-.19-.41-.14-.71.19-.89zm-1.18 1.3a1.42 1.42 0 0 0 -.42.5 1.1 1.1 0 0 1 .35-.78 2.4 2.4 0 0 0 .49-.63q.28.56 0 .84v-.14l-.14-.28a.59.59 0 0 1 -.28.49zm3.24-1.3-1.83 2.5-.56.85a1.57 1.57 0 0 1 -.57.56 6.94 6.94 0 0 1 1.13-2.75 12 12 0 0 0 1.41-2.74v.28q2.25-2.12 4-3.88t3.87-3.59q.13.42 0 .42c0-.09.09-.09.28 0a4.55 4.55 0 0 0 -1.27 1.69 10.48 10.48 0 0 1 -1.9 1.27 5.29 5.29 0 0 0 -1.62 1.27 1.25 1.25 0 0 0 -.28.92 1.3 1.3 0 0 1 -.14.77 3.07 3.07 0 0 1 -1.06.85 4.23 4.23 0 0 0 -1.46 1.58zm2.12 7.19c0-.38.14-.42.42-.14 0 .19 0 .23-.14.14a.18.18 0 0 0 -.28-.04zm3.45 8.52a.25.25 0 0 1 -.07-.21c0-.09 0-.09.14 0s-.03.22-.07.17zm5.14-.77a11 11 0 0 1 -3.38.84 31.73 31.73 0 0 0 3.17-1.05 27.13 27.13 0 0 1 3.31-1.06l.14.28a16.06 16.06 0 0 0 -3.24.95zm-1-.85a.62.62 0 0 0 .29-.07c.09 0 .23 0 .42.07.01.15-.23.15-.7-.04zm5.85-1.12a3.57 3.57 0 0 1 -1.06.84 4.07 4.07 0 0 1 1-1.13 5.54 5.54 0 0 1 1.27-.7 4.88 4.88 0 0 0 -1.2.95zm2.61-1.27a.23.23 0 0 1 .18-.25zm4.65-3.88a5.27 5.27 0 0 0 -1.27.36 1.91 1.91 0 0 1 1-.43 3 3 0 0 0 1.13-.42 1.11 1.11 0 0 1 -.85.45zm5.12-2.36h.14c-.14.02-.14.04-.14 0zm2-.63a2.77 2.77 0 0 1 -.56.07.53.53 0 0 1 .42-.14.45.45 0 0 0 .42-.29.34.34 0 0 1 -.35.36zm3.24-2.61 1.13-1a3.35 3.35 0 0 0 1.9-.84 4.32 4.32 0 0 1 1.9-1 37.71 37.71 0 0 1 -5 2.84zm-1 .28a6.34 6.34 0 0 1 2-1.76c.75-.42 1.55-.82 2.39-1.2a27.88 27.88 0 0 0 -4.45 2.96zm5.76-3.66 1.27-1.13a.53.53 0 0 0 -.14.42zm8-5.57a2.46 2.46 0 0 0 -1.2 1.48q-.13-.28-.21 0c0 .19-.31.19-.77 0-.76.57-1.48 1.13-2.19 1.69s-1.48 1.13-2.32 1.69a.57.57 0 0 0 .14-.42v-.14a6.47 6.47 0 0 1 2.17-1.57 5.38 5.38 0 0 0 2.12-1.55 2.71 2.71 0 0 0 1.41-1.27h.42a2.92 2.92 0 0 1 .56-.21.61.61 0 0 0 .42-.35 1.67 1.67 0 0 0 .71-.21c.28-.14.42-.12.42.07zm9.37-5.07a16.44 16.44 0 0 1 -1.83.92 18.63 18.63 0 0 1 1.62-1 6.62 6.62 0 0 0 1.4-1.12 3.59 3.59 0 0 1 -1.27 1.2zm16.4-29.09c0 .09 0 .12.14.07s.14 0 .14.07l-.28.14v-.28c-.09 0-.14.14-.14.42l-.42.57a3.27 3.27 0 0 1 -1.55 1c0-.18 0-.26.14-.21s.14 0 .14-.07a.88.88 0 0 0 -.49.14c-.14.09-.12.38.07.85v-.71c.09 0 .11.14.07.42s0 .43.07.43a2 2 0 0 1 -.85 1 5.93 5.93 0 0 1 -1.55.78l.29.14a29.3 29.3 0 0 1 -3.1 3.17q-1.56 1.34-3.24 2.89v.56c-.38-.09-.59 0-.64.14a4.77 4.77 0 0 1 -.35.85c0 .09 0 .07.14-.07s.19-.22.28-.22a12.46 12.46 0 0 1 -3.1 3.32c-1.12.79-2.35 1.57-3.66 2.32a12.14 12.14 0 0 1 -1.27 1.34 5.44 5.44 0 0 1 -1.69.91c-.75.76-1.53 1.48-2.32 2.19a31.08 31.08 0 0 1 -2.61 2v.57a.62.62 0 0 1 -.14-.43l-4.23 3.1q.15.28.21 0c.05-.19.12-.19.22 0-.48.47-1 .94-1.48 1.41a17.18 17.18 0 0 1 -2 1.55 5.64 5.64 0 0 1 -.7.28 1 1 0 0 1 -.71 0h.15a.25.25 0 0 0 .28-.28c-.47 0-.76.07-.85.21l-.42.63c.19 0 .28 0 .28-.14a.13.13 0 0 1 .14-.14.48.48 0 0 1 .07.64.59.59 0 0 1 -.49.35 4.51 4.51 0 0 1 -1.76 1.06l-1.9.63v-.14a1.71 1.71 0 0 0 -1 1.13c-.19.56-.52.65-1 .28a6.67 6.67 0 0 1 -2.18 1.69c-.8.37-1.76.84-2.89 1.41v.42h.14c0 .37-.05.59-.14.63a1.08 1.08 0 0 0 -.28.22.29.29 0 0 1 .07-.22 1.93 1.93 0 0 0 .21-.63 14.58 14.58 0 0 1 -1.41.85c-.37.18-.8.37-1.26.56v-.28a2.27 2.27 0 0 0 -1.41.42h.14c.18 0 .28 0 .28.14a2.11 2.11 0 0 0 .77-.14 2.21 2.21 0 0 1 .78-.14 28.48 28.48 0 0 1 -5 3.31q-2.61 1.34-5.71 2.61v.42a44.27 44.27 0 0 1 -4.37 1.76c-1.5.52-3.09 1.15-4.79 1.9q-.13-.71 0-.84a.58.58 0 0 0 .15-.43.26.26 0 0 0 -.29.29 3.18 3.18 0 0 1 -.28 1q-.13-.71-.42-.42c-.19.19-.28.05-.28-.42 0-.1 0 0 .14.21s.23.11.42-.35c0-.1-.07-.17-.21-.22s-.21 0-.21.07v-.42a9.27 9.27 0 0 1 2.39-.35 6.74 6.74 0 0 0 2.68-.63 2.1 2.1 0 0 0 -.7.14 2.85 2.85 0 0 1 -.85.14 8.82 8.82 0 0 1 2.72-1.68c1-.38 1.9-.75 2.74-1.13q-.13-.42-.42-.21a4.91 4.91 0 0 0 -.56.49 6.52 6.52 0 0 0 -2.89 1 17.43 17.43 0 0 1 -2.74 1.44v-.28q0 .27-.84.42a4.68 4.68 0 0 0 -1.16.27v-.28h-.21a1.89 1.89 0 0 1 .7-.28 4.56 4.56 0 0 0 1.48-.71c-.65.19-1.17.35-1.55.49a7.86 7.86 0 0 1 -1.26.36c.46-1 .93-2 1.4-2.82a7.25 7.25 0 0 1 2-2.25c-.19.18-.14.21.14.07s.42-.26.42-.36h-.12a1.52 1.52 0 0 0 .28-.42c0-.09 0-.14.07-.14s.07 0 .07-.14l.14-.14.43-.85a13.54 13.54 0 0 0 -2.26 2.19c-.75.89-1.41 1.71-2 2.46-.1-.19 0-.35.28-.49s.38-.45.28-.92a1.38 1.38 0 0 0 .57-.77c.09-.33.28-.45.56-.35a21.8 21.8 0 0 1 1.69-1.77 9.75 9.75 0 0 0 1.41-1.62v.15a.6.6 0 0 0 .35-.07.29.29 0 0 1 .21-.08.65.65 0 0 1 -.35.36c-.14 0-.21.16-.21.35l1.55-1.27v-.42c.09-.56.23-.85.42-.85a.78.78 0 0 0 -.28.5.5.5 0 0 1 -.14.35l2.11-2v.28a16.22 16.22 0 0 1 1.62-1.13 6.38 6.38 0 0 0 1.62-1.41l-2.25 1.55 2.25-1.69a4 4 0 0 0 .43-.49 2.76 2.76 0 0 1 .42-.49v.14a9.7 9.7 0 0 0 1-.78 6.56 6.56 0 0 0 1-1.06l.28.14a.9.9 0 0 1 .57-.84c.18.09.21.16.07.21a.33.33 0 0 0 -.22.35 2.17 2.17 0 0 0 .78-.56 4.18 4.18 0 0 1 .49-.56c.19.18.17.32-.07.42s-.26.23-.07.42a14 14 0 0 0 1.76-1 5.63 5.63 0 0 0 1.48-1.48l16.66-10.72a11.85 11.85 0 0 0 -1.34.63c-.43.24-.83.45-1.2.64a5.16 5.16 0 0 1 1.54-1.27c.66-.38 1.36-.8 2.11-1.27.38-.19.8-.42 1.27-.7s.71-.52.71-.71a.17.17 0 0 0 .28 0 .57.57 0 0 0 .14-.42.46.46 0 0 0 -.42.21.66.66 0 0 1 -.57.21v-.28a.26.26 0 0 1 .35 0c.14.1.22 0 .22-.14v-.85a2.08 2.08 0 0 1 .14.85c.09-.09.09-.33 0-.7.09.09.14.09.14 0s0-.15.14-.15l.14.15a.13.13 0 0 1 -.14.14 2.39 2.39 0 0 0 .7-.14 2.2 2.2 0 0 1 .71-.15c-.47-.18-.5-.37-.07-.56a3.36 3.36 0 0 0 .77-.42.13.13 0 0 1 .14.14c.19 0 .31 0 .35-.07a.29.29 0 0 1 .22-.07h.14v-.14c0 .09 0 0-.14-.14a.76.76 0 0 1 .28-.21q.13-.07 0 .21a3 3 0 0 1 1-.57 1.78 1.78 0 0 0 1.06-.84l.56.28c0-.19 0-.28.15-.28s.14-.09.14-.28a.59.59 0 0 0 .77 0 3.77 3.77 0 0 1 .64-.43c.09 0 .11-.07.07-.21s-.12-.21-.22-.21l-4.56 2.17q-2.19 1.06-4.3 2.19c-.1-.19-.33-.19-.71 0a6.29 6.29 0 0 1 2.33-1.55 6.34 6.34 0 0 0 1.9-1 .93.93 0 0 0 .56-.21.86.86 0 0 1 .43-.21.44.44 0 0 1 .42-.28 1.72 1.72 0 0 1 1-.64c.46-.14.93-.3 1.4-.49 0 .28-.11.42-.35.42s-.35 0-.35.14c.37.1.59 0 .63-.14s.17-.18.36 0q-.28-.42.42-.63a1.5 1.5 0 0 0 1-1.06c0 .28 0 .43.14.43a17.07 17.07 0 0 0 2.6-.92 12.9 12.9 0 0 0 2-1.2h.7a1.79 1.79 0 0 1 .77-.14h.92a31.62 31.62 0 0 1 -3.31 1.55l-3.59 1.41a3.43 3.43 0 0 0 1.12-.42.83.83 0 0 1 -.56.56 1.45 1.45 0 0 0 .49-.07.66.66 0 0 1 .5.07c-.1-.28-.19-.44-.29-.49s0-.07.15-.07a2.34 2.34 0 0 0 1-.28.4.4 0 0 1 .14.28 1.45 1.45 0 0 1 .85-.64 1.2 1.2 0 0 0 .7-.35 1.93 1.93 0 0 0 1.55-.07 2.49 2.49 0 0 0 1-.77c.09 0 .14.14.14.42a10.58 10.58 0 0 1 1.34-1.13 2.35 2.35 0 0 1 1.76-.42c0-.09-.1-.23-.28-.42l-1.69.28a1.77 1.77 0 0 0 -.43.28 1.52 1.52 0 0 1 -.42.28c0-.65.09-1 .28-1v.42c.19 0 .45-.24.78-.71a1.13 1.13 0 0 1 1.2-.56.12.12 0 0 1 .14-.14.13.13 0 0 0 .14-.14c.37.19.49.19.35 0s0-.23.35-.14a.13.13 0 0 1 -.14.14c-.09 0 0 0 .14.14a.42.42 0 0 0 .28-.14v-.38c-.75.19-1.55.42-2.39.7a10.4 10.4 0 0 0 -2.54 1.27 1.91 1.91 0 0 1 -1 .42 2 2 0 0 0 -1 .42.89.89 0 0 0 -1 .28 2 2 0 0 1 -1 .71c-.19-.09-.52 0-1 .28-.19-.19-.19-.28 0-.28s.19 0 0-.14l-1.27.49a1.52 1.52 0 0 0 -.84.78 1.21 1.21 0 0 0 -.85 0 3 3 0 0 1 -1.27 0l1.41-.43c.1-.09.17-.11.21-.07s.12 0 .22-.07c.93-.37 1.87-.7 2.81-1a10.7 10.7 0 0 0 2.54-1.13c-.19-.19-.31-.21-.35-.07s-.12.21-.21.21l-3.53 1.27v-.28c.19-.19.4-.43.64-.71s.63-.33 1.2-.14a1.5 1.5 0 0 1 1.26-.49c.47.05.85-.26 1.13-.92a4 4 0 0 0 2.4-.84c.28.09.46.07.56-.07a1 1 0 0 1 .42-.35v.42l.28-.57.43-.28a4 4 0 0 1 1.69-.77l1.69-.36c0 .1-.1.15-.28.15s-.29 0-.29.14h.29c.28 0 .42-.1.42-.29v-.14a2.27 2.27 0 0 1 1.34-1c.61-.19 1.1-.33 1.48-.43a1.14 1.14 0 0 1 .42.07.6.6 0 0 0 .28.08l.14.14.28-.29c0-.28.05-.42.14-.42 0 .28 0 .42-.14.42h.14c.1 0 .14-.18.14-.56l2-.42a17.94 17.94 0 0 0 4.22-1.69 1.42 1.42 0 0 1 -1.19 1.13 2.22 2.22 0 0 0 -1.2.42l.14.14 3.52-1.41c-.27.98-.84 1.48-1.5 1.59zm-36.63 13.31a1.12 1.12 0 0 1 .43-.07 2.15 2.15 0 0 0 .7-.14c.09 0 0 .05-.14.14a1.89 1.89 0 0 1 -.85.14c-.19 0-.23-.02-.14-.07zm2.68 2.47a2.87 2.87 0 0 1 2.11-1.41v.28a7.35 7.35 0 0 0 -1 .64 3.4 3.4 0 0 1 -1.11.49zm3.1-.85c0-.18 0-.23.14-.14zm-.21-2.67a.64.64 0 0 1 .35-.15c-.1 0-.14 0-.14.15v.28c-.28-.09-.35-.19-.21-.28zm1.62-1.69c0-.1 0-.15.14-.15s.21.17.07.22-.21.12-.21.21c-.19.04-.19-.09 0-.28zm2.67.21s0-.07.15-.07a.44.44 0 0 0 .28-.14c.09 0 .11 0 .07.14a.24.24 0 0 1 -.21.14c-.19.04-.29-.03-.29-.07zm4.23-3.31c.28 0 .42.09.42.28a.28.28 0 0 0 -.21.07.28.28 0 0 1 -.21.07c-.09-.09-.07-.14.07-.14s.12-.09-.07-.28zm24.37-9.44a.65.65 0 0 0 -.7.42c-.1.28-.28.19-.56-.28a.56.56 0 0 1 .56-.28h.7zm11.13-20.22a17.51 17.51 0 0 1 -.42 2.89 18.09 18.09 0 0 1 -2.75 6.27q-2 3-3.59 5.56a13.22 13.22 0 0 0 -1.2 1.69 5.71 5.71 0 0 1 -1.34 1.55h.29a3.23 3.23 0 0 0 -.72 1.27q-7 2-13.59 4.51t-12.88 5.34a.39.39 0 0 1 .14-.28 2.78 2.78 0 0 0 -.57.07.64.64 0 0 0 -.42.35h.71c-1.88.94-3.79 1.81-5.71 2.61s-3.78 1.67-5.57 2.61l.64-.64a3.63 3.63 0 0 1 .91-.63q-2 1-3.87 2c-1.27.71-2.51 1.39-3.73 2a35.39 35.39 0 0 1 3.38-2.25 26.08 26.08 0 0 0 3.24-2.25c.09-.1.14-.1.14 0s0 .09.14 0c-.09 0-.14-.05-.14-.15a.53.53 0 0 0 .42-.14c.09-.09.23 0 .42.14a1.55 1.55 0 0 1 1.27-.7 1.42 1.42 0 0 0 1.27-1 14.7 14.7 0 0 0 -2.39 1.06c-.76.42-1.51.87-2.26 1.34l.56-.71a5.07 5.07 0 0 0 -1.19.5 8.9 8.9 0 0 1 -1.48.63 6.49 6.49 0 0 0 -.92.78 2.26 2.26 0 0 1 -1.2.63 2 2 0 0 1 -1.69.56 1.27 1.27 0 0 0 -.35.64q-.08.35-.63.21c-.19-.28-.07-.47.35-.56s.59-.33.49-.71a1.26 1.26 0 0 1 .57-.35c.18 0 .37-.26.56-.64a1.48 1.48 0 0 0 -1.27.57.87.87 0 0 1 .14-.57c.1-.09 0-.14-.14-.14a.44.44 0 0 0 -.14.29v.42a7 7 0 0 1 -.63.56 1.83 1.83 0 0 0 -.5.57v.42c-.09 0-.14-.14-.14-.42a1.24 1.24 0 0 0 -.63.21c-.24.14-.35.16-.35.07a.24.24 0 0 1 .28-.28c.19 0 .28-.1.28-.29a1.48 1.48 0 0 0 .78-.35 3.42 3.42 0 0 1 .91-.49 1.34 1.34 0 0 0 -1 .28 1 1 0 0 1 -.71.28q.28-1.83 1.2-2.25a2.19 2.19 0 0 0 1.2-1.13c-.19.1-.45.21-.78.35a2.9 2.9 0 0 0 -.91.64v-.43c0-.28 0-.42.14-.42q.84-2.39 1.76-5.28a42.17 42.17 0 0 1 2.46-6 33.79 33.79 0 0 1 1.78-4.73 21.54 21.54 0 0 1 2.65-4.32 2.48 2.48 0 0 1 .56-1.83 26.9 26.9 0 0 0 3.53-2.6 13.68 13.68 0 0 1 3.66-2.33c2.06-1.13 4.32-2.3 6.76-3.52a42.38 42.38 0 0 1 7.75-3 38.5 38.5 0 0 1 7.25-2.18 37 37 0 0 1 8.39-.64 28.55 28.55 0 0 1 4.15.64 36.08 36.08 0 0 1 4.16 1.2 3 3 0 0 1 .52 2.5zm-50.73 34.3a.12.12 0 0 0 .14-.14c0-.09.09-.14.28-.14.02.19-.12.28-.42.28zm.84-.28.42-.14a.38.38 0 0 1 -.28.14zm60.58-19.3h.42a.36.36 0 0 0 .28-.14q0 .15-.42.21c-.26.05-.35.03-.26-.07zm-.56 0 .28.14h-.14c-.17 0-.22-.04-.12-.14zm1.69 1.41c-.85.1-1.62.17-2.33.21s-1.24.07-1.62.07v.15c-.19 0-.28 0-.28-.15h-.28c0 .29 0 .43-.14.43v-.43h-.71c.19 0 .29-.09.29-.28a1.53 1.53 0 0 1 -.71.14 1.15 1.15 0 0 1 .71-.14 9.85 9.85 0 0 1 1.83-.14h3a2.36 2.36 0 0 0 -1.2-.21 3.65 3.65 0 0 1 -1.2-.07 4.92 4.92 0 0 1 -1.34.07 1.45 1.45 0 0 0 -.49-.07.12.12 0 0 1 .14-.14 6.09 6.09 0 0 1 1.62-.28 3.58 3.58 0 0 0 1.06-.14h1.26a2.26 2.26 0 0 0 .87.3c-.06.13-.11.26-.16.39-.21-.06-.3.03-.3.29zm106.59-1.55s0 0 0 0c-.07.2-.15.39-.22.58l-.3.32h-.14a8.94 8.94 0 0 0 .66-.9zm-3.14 2.5a.22.22 0 0 0 .15-.11c-.15.15-.29.31-.43.46a.33.33 0 0 1 .28-.35zm32.12-15.15a40.93 40.93 0 0 0 -2.75 4 14.45 14.45 0 0 1 -3 3.52 3.1 3.1 0 0 1 -.42 1.13 9.49 9.49 0 0 0 -.56 1l-2.82 3.95c-.56.75-1.06 1.45-1.48 2.11l-1.34 2.11q-1.83 2.27-3.31 4.23a22.42 22.42 0 0 1 -3.45 3.66 5 5 0 0 0 -1.06 1.13 23.63 23.63 0 0 1 -1.62 2 14.06 14.06 0 0 1 .5-5.56q.76-2.48 1.62-5.29a25.91 25.91 0 0 1 1.83-4.93q1.13-2.25 2.53-4.79a13.88 13.88 0 0 1 1.2-2 7.85 7.85 0 0 0 1.06-2q1.55-2.4 3.31-4.86a19.68 19.68 0 0 1 3.73-4c.09 0 .14.14.14.43.19-.66.54-.94 1.06-.85a13.85 13.85 0 0 1 1.62.42l3.24 4.51zm49.88 32.66c0 .28-.09.37-.28.28a.24.24 0 0 1 .28-.28zm-1.55-1.83h.42q0 .28-.42.42zm.21.7c.14-.19.26-.19.35 0s0 .14-.14.14a.13.13 0 0 0 -.14.14c-.23 0-.25-.09-.11-.28zm.28 2.11a.86.86 0 0 1 -.35-.7h.56c0 .19 0 .28-.07.28s-.07.05-.07.14c0-.09.1-.14.28-.14 0 .19.1.28.29.28-.23.28-.44.33-.68.14zm.78-.28.28-.28c.09 0 .14.14.14.42a.53.53 0 0 1 -.46-.14zm1.19.85a2.19 2.19 0 0 0 -.21-.57.92.92 0 0 1 .57.85.34.34 0 0 1 -.4-.28zm60.44 2.39a4.91 4.91 0 0 1 .49-.56.93.93 0 0 1 -.21.56 5 5 0 0 1 -.49.57 1 1 0 0 1 .17-.57zm-.49.85a.18.18 0 0 1 0 .28.44.44 0 0 1 -.28.14c-.04-.09.05-.24.24-.42zm-2.86 2.53c0-.09 0-.14.07-.14s.07 0 .07-.14a.18.18 0 0 1 0 .28.38.38 0 0 1 -.28.14zm-33.25 50.3c0 .94-.09 1.5-.28 1.69-.28-.1-.33-.31-.14-.63a1.36 1.36 0 0 0 .14-1.06l-.28.42a11.63 11.63 0 0 1 .7-4.3q.71-1.75 1.41-3.45l-1 2.68a17.84 17.84 0 0 0 -.55 4.65zm.25 1.87a.44.44 0 0 1 -.14-.28.12.12 0 0 1 .14-.14h.15a2.72 2.72 0 0 1 0-1.27 3 3 0 0 1 .42-1 1.19 1.19 0 0 1 .21 1c-.05.47-.21.75-.49.84.59.53.5.85-.29.85zm3.39 5.63v-.14a.29.29 0 0 0 -.08-.21.33.33 0 0 1 -.07-.21c-.09.19-.14.23-.14.14a.12.12 0 0 0 -.1-.21c.1-.47.28-.56.57-.28s.22.59-.15.87zm2.46-15.07c-.14.37-.3.8-.49 1.27l-.14.14a6 6 0 0 1 .35-1.2c.14-.33.31-.73.49-1.2a2.89 2.89 0 0 1 -.18.95zm.21-7c-.09.18-.09.3 0 .35s.1.16 0 .35a20.76 20.76 0 0 0 -3 6 56.38 56.38 0 0 0 -1.48 6.13c-.41 0-.66-.13-.77-.38a.9.9 0 0 1 -.07.24 3.55 3.55 0 0 1 .07-2.54 9.82 9.82 0 0 0 .77-2.11v-.71a5 5 0 0 0 .5-.56 3.92 3.92 0 0 0 .35-.56v-.77c.19-.47.4-1 .63-1.48a15.9 15.9 0 0 1 .78-1.48 5.66 5.66 0 0 1 .77-1.34 5.64 5.64 0 0 0 .78-1.33 1.69 1.69 0 0 0 .84-1 1.83 1.83 0 0 1 .43-.85c0-.09 0-.14-.07-.14s-.08-.09-.08-.28a1.87 1.87 0 0 1 .64-.42c.23-.1.35-.33.35-.71l.28.15a5.93 5.93 0 0 1 1-1.27 3.61 3.61 0 0 0 .84-1.27 5.36 5.36 0 0 1 -1 2 12.82 12.82 0 0 0 -1.27 2 2.85 2.85 0 0 1 -.77.78 1.22 1.22 0 0 0 -.49 1.12zm30.94-30.02c-.24.51-.5 1.08-.78 1.69s-.54 1.2-.77 1.76-.4 1-.5 1.27c-.84 1.88-1.71 3.61-2.6 5.21s-1.76 3.12-2.61 4.58-1.74 3-2.68 4.51-1.88 3.21-2.81 5c-.38.75-.69 1.38-.92 1.9a16 16 0 0 1 -1.06 1.9l-1.27 1.69a2.06 2.06 0 0 1 -.36.5l-.35.35a1.29 1.29 0 0 0 -.14.56.81.81 0 0 1 -.28.57l-1.55 1.69-.56 1.12a8.7 8.7 0 0 1 -.57 1 4.1 4.1 0 0 1 -1.34 1.69 3.24 3.24 0 0 0 -1.19 1.83c-.38.38-.71.68-1 .92a2.48 2.48 0 0 0 -.7 1 2.43 2.43 0 0 0 -1.34 1.2 2 2 0 0 1 -1.2 1.06c0 .09 0 .14.07.14s.07.09.07.28a14.32 14.32 0 0 1 -1.13 1.27l-1.26 1.27a3.3 3.3 0 0 0 -.5.28.88.88 0 0 1 -.49.14.57.57 0 0 1 -.56-.49 3.67 3.67 0 0 1 -.15-1.06 8.06 8.06 0 0 1 .43-2.54 5.7 5.7 0 0 0 .21-1.05 2.33 2.33 0 0 1 .35-1.06 27.1 27.1 0 0 1 1.62-4.08c.61-1.23 1.2-2.49 1.76-3.81a3.94 3.94 0 0 0 .57-.77c.18-.33.37-.64.56-.92.19-.47.33-.84.42-1.13a2 2 0 0 1 .42-.7l.43-.42a1.33 1.33 0 0 0 .14-.57.57.57 0 0 1 .14-.42 2.42 2.42 0 0 1 .63-.84 1.54 1.54 0 0 0 .5-.71c.09-.09.09-.14 0-.14a.12.12 0 0 1 -.14-.14 1.68 1.68 0 0 1 .35-.64 4.5 4.5 0 0 1 .63-.49.59.59 0 0 1 -.35.49.72.72 0 0 0 -.35.64 6.75 6.75 0 0 0 1.55-1.9 18.78 18.78 0 0 1 1.26-2.05l1.34-1.54a7.94 7.94 0 0 1 .92-.92c.28-.24.59-.52.91-.85a9.64 9.64 0 0 0 1.2-1.62l1.41-2a4.66 4.66 0 0 0 .71-.91c.18-.33.37-.69.56-1.06l.7-.71.71-.7 3.1-3.66c1-1.23 2-2.49 3-3.81a7.38 7.38 0 0 0 1.12-1c.47-.52 1-1 1.48-1.55s1-1 1.48-1.41a11.86 11.86 0 0 1 1.13-.92 3.4 3.4 0 0 1 -.37 1.08zm.49-10.07c0 .09-.1.19-.28.28a4.69 4.69 0 0 1 .56-.69v.27c-.17 0-.26.04-.26.14zm.84-.78c-.28 0-.42.17-.42.35h-.13l.06-.07.64-.63c.2.19.16.31-.13.35zm1.41-1.55a2 2 0 0 0 -1 1.2v-.14l-.14-.28q.56-.57 1.05-1a5.83 5.83 0 0 0 .92-1 1.54 1.54 0 0 1 -.81 1.22zm2.19-1.2a.22.22 0 0 1 -.21.14l-.71.57a1.09 1.09 0 0 1 .35-.43 3.16 3.16 0 0 0 .5-.42c.14 0 .14.05.14.14zm.14-1.26a2.14 2.14 0 0 0 -.35.28.34.34 0 0 1 .21-.36.63.63 0 0 0 .35-.35.49.49 0 0 1 -.19.43zm-15.29 5.07a3.81 3.81 0 0 1 -2.39.07 2 2 0 0 1 -1.55-1.48 10.82 10.82 0 0 0 3.94 1c.28 0 .42 0 .42.14s-.12.27-.4.27zm24.94-37.41a25.49 25.49 0 0 0 -1.55 2.47 1.18 1.18 0 0 0 -.35.63.68.68 0 0 1 -.5.5l.14.28q-3.09 3.94-5.77 8a47.25 47.25 0 0 1 -6.06 7.46 1.65 1.65 0 0 1 -.56.92 8.83 8.83 0 0 1 -.85.63 44.82 44.82 0 0 0 -3.66 4.16 14.93 14.93 0 0 1 -3.95 3.59 1.68 1.68 0 0 1 .21-.7 1.06 1.06 0 0 0 .08-.85 54.62 54.62 0 0 1 3.59-9.72 94.18 94.18 0 0 1 5-9q1.13-2 2.46-4t2.61-4.16l2.82-3.8c.75-.47 1.48-.94 2.18-1.41a7 7 0 0 1 2.19-1 1 1 0 0 1 1.12.63c.28.52.52.92.71 1.2a2.73 2.73 0 0 1 1 .91c.19.33.38.64.57.92a18.47 18.47 0 0 1 -1.41 2.34zm13.1 17.83a2.5 2.5 0 0 1 -1.41 1.12 3.11 3.11 0 0 0 .71-.63 2.89 2.89 0 0 1 .7-.64zm10.85-6.77.7-.42c.02.09-.21.24-.68.42zm1.34-.7c-.14 0-.26.09-.36.28a.37.37 0 0 1 .43-.42c.11.09.09.14-.08.14z"/><path d="m316.74 161.73a.21.21 0 0 1 0 .11.93.93 0 0 1 0-.25c-.09 0-.09.05 0 .14z"/><path d="m322.23 143.14c.19-.38.24-.62.14-.71a1.15 1.15 0 0 0 -.14.71z"/><path d="m321 145a.46.46 0 0 1 -.29.42.28.28 0 0 0 -.14.42c.43-.5.58-.78.43-.84z"/><path d="m315.61 158.07a.59.59 0 0 1 -.35.49c-.23.14-.26.36-.07.64 0-.1.14-.14.42-.14a.52.52 0 0 1 .07-.57c.14-.19.12-.33-.07-.42z"/><path d="m327.59 136.37a1.35 1.35 0 0 0 .42-1 4.56 4.56 0 0 1 -.42.56q-.15.15 0 .44z"/><path d="m328.57 135.11c0-.05 0-.08 0-.12a.15.15 0 0 0 0 .12z"/><path d="m379.85 93.76a2.64 2.64 0 0 0 -.7.49 2.14 2.14 0 0 0 1.41-1.13 1.74 1.74 0 0 1 -.71.64z"/><path d="m341.81 118.62-.42.43.71-.57z"/><path d="m382.25 87.35-.42.42c.28 0 .51-.19.7-.56 0 .09-.09.14-.28.14z"/><path d="m329.42 133c-.47.57-1 1.15-1.55 1.76a10.92 10.92 0 0 0 -1.55 2.19c-.47.65-.94 1.38-1.41 2.18a11.76 11.76 0 0 0 -1.13 2.61 37.27 37.27 0 0 1 2.82-4.51q1.55-2.12 2.82-4.23z"/><path d="m394.2 81.94h-.05z"/><path d="m67.04 142.58h6.61v35.93h7.58v-35.93h6.46v-5.59h-20.65z"/><path d="m107.58 154.32h-8.46v-17.33h-7.53v41.52h7.53v-18.76h8.46v18.76h7.58v-41.52h-7.58z"/><path d="m129.05 159.54h7.79v-5.27h-7.79v-11.95h9.89v-5.33h-17.42v41.52h17.52v-5.18h-9.99z"/><path d="m155.91 178.51h7.53v-18.92h7.79v-5.27h-7.79v-12.1h9.53v-5.23h-17.06z"/><path d="m192.81 166a14.45 14.45 0 0 1 -.85 5.54c-.56 1.29-1.73 1.94-3.51 1.94a3.39 3.39 0 0 1 -3.46-1.94 14.45 14.45 0 0 1 -.85-5.54v-29h-7.38v28.09a24.44 24.44 0 0 0 1 7.69 8.63 8.63 0 0 0 3.59 4.66 16.06 16.06 0 0 0 14.14 0 8.59 8.59 0 0 0 3.59-4.69 24.41 24.41 0 0 0 1-7.66v-28.09h-7.33z"/><path d="m203.62 142.58h6.61v35.93h7.59v-35.93h6.46v-5.59h-20.66z"/><path d="m243.8 166a14.26 14.26 0 0 1 -.85 5.54c-.56 1.29-1.73 1.94-3.51 1.94a3.39 3.39 0 0 1 -3.46-1.94 14.48 14.48 0 0 1 -.84-5.54v-29h-7.38v28.09a24.47 24.47 0 0 0 1 7.69 8.68 8.68 0 0 0 3.59 4.66 16.08 16.08 0 0 0 14.15 0 8.58 8.58 0 0 0 3.58-4.69 24.12 24.12 0 0 0 1-7.66v-28.09h-7.28z"/><path d="m278.93 154.44a15.31 15.31 0 0 0 1.16-6.43q0-6-3.23-8.53t-9.79-2.48h-10v41.52h7.54v-19h3.59l5 19h7.58l-5.78-20.46a7 7 0 0 0 3.93-3.62zm-7.33-1.15q-1.35 1.49-4.58 1.49h-2.41v-12.61h2.82c2.08 0 3.53.5 4.33 1.49a7.58 7.58 0 0 1 1.2 4.76q.04 3.39-1.36 4.87z"/><path d="m293.36 159.54h7.79v-5.27h-7.79v-11.95h9.89v-5.33h-17.42v41.52h17.52v-5.18h-9.99z"/></g></svg>